<?xml version="1.0" encoding="utf-8"?>
<!-- Generator: Adobe Illustrator 23.0.6, SVG Export Plug-In . SVG Version: 6.00 Build 0)  -->
<svg version="1.1" id="Layer_1" xmlns="http://www.w3.org/2000/svg" xmlns:xlink="http://www.w3.org/1999/xlink" x="0px" y="0px"
	 viewBox="0 0 329.5 150.9" style="enable-background:new 0 0 329.5 150.9;" xml:space="preserve">
<style type="text/css">
	.st0{fill:url(#SVGID_1_);}
	.st1{fill:url(#SVGID_2_);}
	.st2{fill:url(#SVGID_3_);}
	.st3{fill:url(#SVGID_4_);}
	.st4{fill:#062354;}
	.st5{fill:#737373;}
	.st6{fill:url(#SVGID_5_);}
	.st7{fill:url(#SVGID_6_);}
	.st8{fill:url(#SVGID_7_);}
	.st9{fill:url(#SVGID_8_);}
</style>
<g>
	<g>
		
			<linearGradient id="SVGID_1_" gradientUnits="userSpaceOnUse" x1="-602.0055" y1="1867.4089" x2="-540.0053" y2="1867.4089" gradientTransform="matrix(0.9346 -0.3558 0.3558 0.9346 26.9059 -1905.4806)">
			<stop  offset="0.1685" style="stop-color:#8C0001"/>
			<stop  offset="0.2553" style="stop-color:#B60000"/>
			<stop  offset="0.35" style="stop-color:#DE0000"/>
			<stop  offset="0.4256" style="stop-color:#F60000"/>
			<stop  offset="0.4719" style="stop-color:#FF0000"/>
			<stop  offset="0.5235" style="stop-color:#F40000"/>
			<stop  offset="0.6147" style="stop-color:#D60000"/>
			<stop  offset="0.7339" style="stop-color:#A60000"/>
			<stop  offset="0.7921" style="stop-color:#8C0001"/>
		</linearGradient>
		<path class="st0" d="M148.2,57.2c12.7-3.6,25.6-7.7,28.1-8.4c2.5-0.8,6.3-2,8.8-2.6c2.7-0.7,3.7,1.8,3.7,1.8s3.9-2.7,0.3-9
			c-2.2-3.9-5.8-5.8-8.9-5.1c-2.5,0.6-13.9,4.4-24.4,7.4c-10.5,3-15.2,4.4-19.2,2.9c-8.3-3-8.4-7-8.4-7s-3.9,6.5-0.5,14.3
			C131,58.8,135.5,60.8,148.2,57.2z"/>
		
			<linearGradient id="SVGID_2_" gradientUnits="userSpaceOnUse" x1="-602.2165" y1="1896.4229" x2="-536.98" y2="1896.4229" gradientTransform="matrix(0.9346 -0.3558 0.3558 0.9346 26.9059 -1905.4806)">
			<stop  offset="0.1966" style="stop-color:#8C0001"/>
			<stop  offset="0.2518" style="stop-color:#9F0000"/>
			<stop  offset="0.4153" style="stop-color:#D30000"/>
			<stop  offset="0.5387" style="stop-color:#F30000"/>
			<stop  offset="0.6067" style="stop-color:#FF0000"/>
		</linearGradient>
		<path class="st1" d="M205,71.7c-13.6,4.3-19.8,6.2-22.3,7c-2.5,0.8-11.1,3.5-23.9,6.9c-12.7,3.4-17.5,1-20.7-6.3
			c-3.4-7.8,0.9-13.8,0.9-13.8s-0.1,3.8,8.2,6.8c4,1.5,8.7,0,19.2-2.9c10.5-3,20.2-6.4,33.7-10.6L205,71.7z"/>
		
			<linearGradient id="SVGID_3_" gradientUnits="userSpaceOnUse" x1="-602.4102" y1="1857.1959" x2="-537.0834" y2="1857.1959" gradientTransform="matrix(0.9346 -0.3558 0.3558 0.9346 26.9059 -1905.4806)">
			<stop  offset="0.1404" style="stop-color:#062354"/>
			<stop  offset="0.5" style="stop-color:#0C419A"/>
		</linearGradient>
		<path class="st2" d="M179.9,6l5.6,14.7c0,0-22,10.4-32.1,16.1c-10,5.7-16.9,10.4-19.3,15.2c-2.3,4.6,0.2,6.4,0.2,6.4
			s-4.8-1.1-7.3-7.7c-2.5-6.6,0.1-12,1.8-14.6c1.7-2.5,7.6-7.1,19.7-13.7C158.8,17,179.9,6,179.9,6z"/>
		
			<linearGradient id="SVGID_4_" gradientUnits="userSpaceOnUse" x1="-602.408" y1="1885.3146" x2="-538.986" y2="1885.3146" gradientTransform="matrix(0.9346 -0.3558 0.3558 0.9346 26.9059 -1905.4806)">
			<stop  offset="0.1404" style="stop-color:#062354"/>
			<stop  offset="0.5" style="stop-color:#0C419A"/>
			<stop  offset="0.8034" style="stop-color:#062354"/>
		</linearGradient>
		<path class="st3" d="M178.6,39.4c10.3-6.8,1.6-5.5,1.6-5.5s7.5-2,10.1,5c2.6,6.8-1.5,11.3-7,14.7c-6.5,4.1-12.5,7.6-19.2,11.4
			c-10,5.7-16.9,10.4-19.3,15.2c-2.3,4.7,0.3,6.2,0.3,6.2s-4.9-0.9-7.4-7.4c-2.5-6.6,0.1-12,1.8-14.6c1.7-2.5,7.6-7.1,19.7-13.7
			C169.6,45.2,174.8,42,178.6,39.4z"/>
	</g>
	<g>
		<path class="st4" d="M47.1,118.9c0.1,0-0.4-0.1-1.4-0.1c-0.8,0-2-0.1-3.5-0.4c-2.6-0.5-4.5-1.9-5.6-3.8c-1.2-1.9-1.4-4.3-0.8-7.1
			c0.8-3.6,2.6-6.5,5.5-8.7c2.9-2.3,6.1-3.4,9.7-3.4c3.1,0,5.4,0.8,7.1,2.6c1.7,1.8,2.3,4.2,1.6,7.3l-0.6,2.6H42.4
			c-0.7,4,0.9,6.1,4.6,6.1h10.7l-1.1,5C52.7,118.8,49.5,118.9,47.1,118.9z M50.1,100.3c-2.3,0-4.1,0.8-5.6,2.5h8.7
			C53,101.1,52,100.3,50.1,100.3z"/>
		<path class="st4" d="M89.6,118.7l3.2-14.5c0.3-1.2,0.1-2.1-0.6-2.9c-0.7-0.7-1.6-1.1-2.8-1.1c-1.4,0-2.5,0.3-3.3,0.9
			c-0.8,0.6-1.4,1.7-1.7,3.1l-3.2,14.5h-6.5l3.2-14.5c0.3-1.2,0.1-2.1-0.6-2.9c-0.7-0.7-1.6-1.1-2.8-1.1c-1.4,0-2.5,0.3-3.3,0.9
			c-0.8,0.6-1.4,1.7-1.7,3.1l-3.2,14.5H60l3.5-15.6c0.6-2.5,2.2-4.5,4.9-6c2.3-1.3,4.8-1.9,7.5-1.9c2.9,0,5.2,0.9,6.8,2.6
			c2-1.7,4.7-2.6,8-2.6c2.6,0,4.9,0.6,6.6,1.9c2.1,1.5,2.8,3.4,2.3,6L96,118.7H89.6z"/>
		<path class="st4" d="M113,118.9c0,0-0.4-0.1-1.4-0.1c-0.8,0-2-0.1-3.5-0.4c-2.6-0.5-4.5-1.9-5.6-3.8c-1.1-1.9-1.4-4.3-0.8-7.1
			c0.8-3.6,2.6-6.5,5.5-8.7c2.9-2.3,6.1-3.4,9.7-3.4c3.1,0,5.4,0.8,7.1,2.6c1.7,1.8,2.3,4.2,1.6,7.3l-0.6,2.6h-16.7
			c-0.6,4,0.9,6.1,4.6,6.1h10.7l-1.1,5C118.5,118.8,115.4,118.9,113,118.9z M115.9,100.3c-2.3,0-4.1,0.8-5.6,2.5h8.7
			C118.9,101.1,117.9,100.3,115.9,100.3z"/>
		<path class="st4" d="M141.7,100.3c-1.4,0-2.7,0.5-3.9,1.5c-1.2,1-2,2.2-2.3,3.6l-3,13.4h-6.4l2.9-13.1c0.8-3.4,2.4-6,4.9-7.8
			c2.4-1.7,5.4-2.6,8.8-2.6h4.2l-1.1,5.1H141.7z"/>
		<path class="st4" d="M174.4,118.7l3.2-14.5c0.3-1.2,0.1-2.1-0.6-2.9c-0.7-0.7-1.6-1.1-2.8-1.1c-1.4,0-2.5,0.3-3.3,0.9
			c-0.8,0.6-1.4,1.7-1.7,3.1l-3.2,14.5h-6.5l3.2-14.5c0.3-1.2,0.1-2.1-0.5-2.9c-0.7-0.7-1.6-1.1-2.8-1.1c-1.4,0-2.5,0.3-3.3,0.9
			c-0.8,0.6-1.4,1.7-1.7,3.1l-3.2,14.5h-6.5l3.5-15.6c0.6-2.5,2.2-4.5,4.9-6c2.3-1.3,4.8-1.9,7.5-1.9c2.9,0,5.2,0.9,6.8,2.6
			c2-1.7,4.7-2.6,8-2.6c2.6,0,4.9,0.6,6.6,1.9c2.1,1.5,2.8,3.4,2.3,6l-3.5,15.6H174.4z"/>
		<path class="st4" d="M197.8,118.9c0,0-0.4-0.1-1.4-0.1c-0.8,0-2-0.1-3.5-0.4c-2.6-0.5-4.5-1.9-5.6-3.8c-1.1-1.9-1.4-4.3-0.8-7.1
			c0.8-3.6,2.6-6.5,5.5-8.7c2.9-2.3,6.1-3.4,9.7-3.4c3.1,0,5.4,0.8,7.1,2.6c1.7,1.8,2.3,4.2,1.6,7.3l-0.6,2.6h-16.7
			c-0.7,4,0.9,6.1,4.6,6.1h10.7l-1.1,5C203.4,118.8,200.2,118.9,197.8,118.9z M200.8,100.3c-2.3,0-4.1,0.8-5.6,2.5h8.7
			C203.7,101.1,202.7,100.3,200.8,100.3z"/>
		<path class="st4" d="M248.7,92.3c-0.9,0.7-1.8,1.1-2.9,1.1c-1.1,0-1.9-0.3-2.4-1.1c-0.5-0.7-0.6-1.7-0.4-2.8
			c0.3-1.1,0.8-2,1.6-2.8c0.8-0.7,1.8-1.1,2.9-1.1c1.1,0,1.9,0.3,2.4,1.1c0.5,0.7,0.7,1.6,0.4,2.8C250.1,90.6,249.5,91.5,248.7,92.3
			z M236.9,118.7l5.3-23.8h6.5l-5.3,23.8H236.9z"/>
		<polygon class="st4" points="201.3,92.8 207.6,87.7 214.1,87.7 207.8,92.8 		"/>
		<path class="st4" d="M240.5,84.6H234l-2.5,11.3c-1.2-0.5-2.6-0.7-4.2-0.7c-3.6,0-6.8,1.1-9.7,3.4c-2.9,2.2-4.7,5.1-5.5,8.7
			c-0.6,2.8-0.4,5.2,0.8,7.1c1.1,1.9,3,3.3,5.6,3.8c1.5,0.3,2.7,0.3,3.5,0.4c1,0,1.5,0.1,1.4,0.1c1.5,0,3.5,0,5.7-0.1h3.8l0,0
			c0,0,0,0,0,0L240.5,84.6z M218.8,107.7c0.4-1.7,0.8-3.5,2.1-4.9c1.9-2.1,4-2.5,5.7-2.5c1.3,0,2.3,0.7,2.7,1.3
			c0.6,1.1,0.6,2,0.3,3.4l-0.4,1.8l-1.5,6.8c0,0-4,0-4.7,0C218.8,113.6,218.4,109.4,218.8,107.7z"/>
		<path class="st4" d="M295.5,103.5c0,0,0.5-2.9-1.5-5.1c-1.6-1.8-3.4-2.5-3.4-2.5c-1.2-0.5-2.6-0.7-4.2-0.7c-3.6,0-6.8,1.1-9.7,3.4
			c-2.9,2.2-4.7,5.1-5.5,8.7c-0.6,2.8-0.4,5.2,0.8,7.1c1.1,1.9,3,3.3,5.6,3.8c1.5,0.3,2.7,0.4,3.5,0.4c2.4,0,4.5-0.9,4.5-0.9
			l-0.2,0.9h6.5l0,0c0,0,0,0,0,0L295.5,103.5z M278,107.7c0.4-1.7,0.8-3.5,2.1-4.9c1.9-2.1,4-2.5,5.7-2.5c1.3,0,2.4,0.7,2.7,1.3
			c0.6,1.1,0.6,2,0.3,3.4l-0.4,1.8l-1.5,6.8c0,0-4,0-4.7,0C277.9,113.6,277.6,109.4,278,107.7z"/>
		<path class="st4" d="M259.1,118.8c-3.7,0-6.4-1.1-8.3-3.2c-2-2.2-2.6-5-1.8-8.6c0.8-3.6,2.8-6.7,5.8-8.9c3-2.2,6.4-3.3,10-3.3h7.4
			l-1.1,5.1h-7.1c-2,0-3.8,0.6-5.4,2c-1.6,1.3-2.6,3-3,5c-0.4,2-0.2,3.6,0.7,4.9c0.9,1.3,2.4,1.9,4.4,1.9h7.4l-1.1,5.1H259.1z"/>
	</g>
	<g>
		<path class="st5" d="M143.1,135.6h-1.7l1.7-9.1h2.6c1.8,0,2.6,1.3,2.6,2.4c0,1.8-1.5,3.2-4.1,3.2l0.2-1.1l0.3,0
			c1.1-0.1,1.9-0.7,1.9-2c0-0.4-0.3-1.5-1.2-1.5h-0.7L143.1,135.6z"/>
		<path class="st5" d="M148.6,133c0-2.7,2-4,3.6-4c2,0,2.8,1.4,2.8,2.7c0,2.1-1.3,4.1-3.6,4.1C149.7,135.8,148.6,134.5,148.6,133z
			 M153.3,131.6c0-0.9-0.4-1.7-1.2-1.7c-1.5,0-1.9,1.9-1.9,3c0,1.2,0.4,2,1.4,2C152.2,134.8,153.3,134.4,153.3,131.6z"/>
		<path class="st5" d="M158.3,130.2L158.3,130.2l0.4-0.5c0.2-0.3,0.7-0.8,1.2-0.8c0.4,0,0.7,0.2,0.9,0.5l-0.8,1.2
			c-0.2-0.1-0.3-0.1-0.6-0.1c-0.5,0-1.2,0.5-1.4,1.9l-0.6,3.2h-1.5l1.2-6.5h1.5L158.3,130.2z"/>
		<path class="st5" d="M165.4,138.9h-1.6l0.8-4.2l0,0l-0.3,0.4c-0.2,0.2-1,0.8-2,0.8c-1.2,0-1.9-1-1.9-2.4c0-2.1,1.6-4.4,3.6-4.4
			c0.5,0,1.2,0.2,1.5,0.6l0.1-0.4h1.6L165.4,138.9z M164.1,130c-0.7,0-2,0.9-2,3.2c0,0.9,0.4,1.4,1,1.4c0.8,0,1.9-0.8,2.2-4.1
			C164.9,130.1,164.8,130,164.1,130z"/>
		<path class="st5" d="M172,134.3L172,134.3c-0.9,1.2-1.7,1.5-2.5,1.5c-0.6,0-1.4-0.4-1.4-1.5c0-0.4,0.1-0.8,0.2-1.4l0.8-3.7h1.5
			l-0.8,3.7c-0.1,0.4-0.1,0.7-0.1,0.9c0,0.7,0.4,0.9,0.6,0.9c0.7,0,1.8-1.5,2.1-3.4l0.4-2.2h1.6l-1.2,6.5h-1.5L172,134.3z"/>
		<path class="st5" d="M179.9,134.9c-1.1,0.8-2.1,0.9-2.8,0.9c-1.2,0-2-1-2-2.6c0-1.8,1.4-4.3,4-4.3c0.7,0,1.6,0.4,1.6,1.4
			c0,1.7-2.6,2.6-4,2.6c-0.1,0.5,0,1.7,1.1,1.7c0.4,0,1-0.2,1.6-0.6L179.9,134.9z M179.3,130.6c0-0.4-0.2-0.6-0.6-0.6
			c-0.7,0-1.5,0.9-1.8,2.1C178.1,131.9,179.2,131.4,179.3,130.6z"/>
		<path class="st5" d="M188.3,135.4c-0.5,0.3-1.1,0.4-1.6,0.4c-1.1,0-1.8-0.6-1.4-2.3l0.7-3.4h-0.8l0.2-0.9h0.8l0.3-1.6l1.6-0.4
			l-0.4,2h1.5l-0.2,0.9h-1.5l-0.7,3.2c-0.3,1.3,0.2,1.5,0.5,1.5c0.3,0,0.5-0.1,0.8-0.2L188.3,135.4z"/>
		<path class="st5" d="M193.4,134.3L193.4,134.3c-0.9,1.2-1.7,1.5-2.5,1.5c-0.6,0-1.4-0.4-1.4-1.5c0-0.4,0.1-0.8,0.2-1.4l0.8-3.7
			h1.5l-0.8,3.7c-0.1,0.4-0.1,0.7-0.1,0.9c0,0.7,0.4,0.9,0.6,0.9c0.7,0,1.8-1.5,2.1-3.4l0.4-2.2h1.6l-1.2,6.5h-1.5L193.4,134.3z"/>
		<path class="st5" d="M204.1,130.2c-0.3-0.2-0.7-0.3-0.9-0.3c-0.4,0-0.8,0.3-0.8,0.9c0,0.4,0.3,0.7,0.8,1.3
			c0.5,0.5,0.8,1.2,0.8,1.8c0,1.3-1.1,2-2.4,2c-0.9,0-1.4-0.3-1.9-0.7l0.7-0.9c0.3,0.3,0.8,0.6,1.1,0.6c0.6,0,1-0.4,1-1
			c0-0.4-0.3-0.8-0.9-1.4c-0.5-0.6-0.8-1.1-0.8-1.5c0-1.4,1.2-1.9,2.2-1.9c0.8,0,1.4,0.3,1.6,0.6L204.1,130.2z"/>
		<path class="st5" d="M210.9,135.6h-1.5l0.2-1l0,0l-0.3,0.4c-0.2,0.2-1,0.8-2,0.8c-1.2,0-1.9-1-1.9-2.4c0-2.1,1.6-4.4,3.6-4.4
			c0.5,0,1.2,0.2,1.5,0.6l0.1-0.4h1.6L210.9,135.6z M209,130c-0.7,0-2,0.9-2,3.2c0,0.9,0.4,1.4,1,1.4c0.8,0,1.9-0.8,2.2-4.1
			C209.8,130.1,209.6,130,209,130z"/>
		<path class="st5" d="M212.6,135.6l1.8-9.6h1.6l-1.8,9.6H212.6z"/>
		<path class="st5" d="M220.2,134.3L220.2,134.3c-0.9,1.2-1.7,1.5-2.5,1.5c-0.6,0-1.4-0.4-1.4-1.5c0-0.4,0.1-0.8,0.2-1.4l0.8-3.7
			h1.5l-0.8,3.7c-0.1,0.4-0.1,0.7-0.1,0.9c0,0.7,0.4,0.9,0.6,0.9c0.7,0,1.8-1.5,2.1-3.4l0.4-2.2h1.6l-1.2,6.5h-1.5L220.2,134.3z"/>
		<path class="st5" d="M227.5,134.7L227.5,134.7l-0.3,0.3c-0.2,0.2-1,0.8-2,0.8c-1.2,0-1.9-1-1.9-2.4c0-2.1,1.6-4.4,3.6-4.4
			c0.5,0,1.2,0.2,1.5,0.6l0.7-3.5h1.6l-1.8,9.6h-1.5L227.5,134.7z M227,130c-0.7,0-2,0.9-2,3.2c0,0.9,0.4,1.4,1,1.4
			c0.8,0,1.9-0.8,2.2-4.1C227.7,130.1,227.6,130,227,130z"/>
		<path class="st5" d="M236.8,130.3L236.8,130.3c1-1.1,1.8-1.4,2.7-1.4c0.9,0,1.4,0.4,1.4,1.5c0,0.4-0.1,0.8-0.2,1.4l-0.8,3.7h-1.5
			l0.8-3.7c0.1-0.4,0.1-0.7,0.1-0.9c0-0.7-0.3-0.9-0.7-0.9c-0.7,0-2,1.5-2.3,3.3l-0.4,2.2h-1.6l1.2-6.5h1.5L236.8,130.3z"/>
		<path class="st5" d="M241.9,133c0-2.7,2-4,3.6-4c2,0,2.8,1.4,2.8,2.7c0,2.1-1.3,4.1-3.6,4.1C243,135.8,241.9,134.5,241.9,133z
			 M246.6,131.6c0-0.9-0.4-1.7-1.2-1.7c-1.5,0-1.9,1.9-1.9,3c0,1.2,0.4,2,1.4,2C245.5,134.8,246.6,134.4,246.6,131.6z"/>
		<path class="st5" d="M253,130.2c-0.3-0.2-0.7-0.3-0.9-0.3c-0.4,0-0.8,0.3-0.8,0.9c0,0.4,0.3,0.7,0.8,1.3c0.5,0.5,0.8,1.2,0.8,1.8
			c0,1.3-1.1,2-2.4,2c-0.9,0-1.4-0.3-1.9-0.7l0.7-0.9c0.3,0.3,0.8,0.6,1.1,0.6c0.6,0,1-0.4,1-1c0-0.4-0.3-0.8-0.9-1.4
			c-0.5-0.6-0.8-1.1-0.8-1.5c0-1.4,1.2-1.9,2.2-1.9c0.8,0,1.4,0.3,1.6,0.6L253,130.2z"/>
		<path class="st5" d="M260.3,130.3L260.3,130.3c0.6-0.8,1.6-1.4,2.3-1.4c0.6,0,1.3,0.3,1.3,1.4h0c0.6-0.9,1.8-1.4,2.4-1.4
			c1,0,1.4,0.4,1.4,1.5c0,0.4,0,0.8-0.2,1.4l-0.7,3.7h-1.5l0.7-3.7c0.1-0.4,0.1-0.7,0.1-0.9c0-0.7-0.2-0.9-0.6-0.9
			c-0.7,0-1.8,1.5-2,3l-0.4,2.5h-1.5l0.7-3.7c0.1-0.4,0.1-0.7,0.1-0.9c0-0.7-0.2-0.9-0.6-0.9c-0.7,0-1.8,1.5-2,3l-0.4,2.5h-1.5
			l1.2-6.5h1.5L260.3,130.3z"/>
		<path class="st5" d="M272.7,134.3L272.7,134.3c-0.9,1.2-1.7,1.5-2.5,1.5c-0.6,0-1.4-0.4-1.4-1.5c0-0.4,0.1-0.8,0.2-1.4l0.8-3.7
			h1.5l-0.8,3.7c-0.1,0.4-0.1,0.7-0.1,0.9c0,0.7,0.4,0.9,0.6,0.9c0.7,0,1.8-1.5,2.1-3.4l0.4-2.2h1.6l-1.2,6.5h-1.5L272.7,134.3z"/>
		<path class="st5" d="M280.7,134.9c-1.1,0.8-2.1,0.9-2.8,0.9c-1.2,0-2-1-2-2.6c0-1.8,1.4-4.3,4-4.3c0.7,0,1.6,0.4,1.6,1.4
			c0,1.7-2.6,2.6-4,2.6c-0.1,0.5,0,1.7,1.1,1.7c0.4,0,1-0.2,1.6-0.6L280.7,134.9z M280.1,130.6c0-0.4-0.2-0.6-0.6-0.6
			c-0.7,0-1.5,0.9-1.8,2.1C278.9,131.9,280,131.4,280.1,130.6z"/>
		<path class="st5" d="M283.4,135.6l-1.2-6.4l1.6-0.2c0.2,1.5,0.5,3.7,0.6,4.9h0c0.5-1.3,1.7-3.4,2.5-4.9l1.2,0.4l-3.6,6.2H283.4z"
			/>
		<path class="st5" d="M293,134.9c-1.1,0.8-2.1,0.9-2.8,0.9c-1.2,0-2-1-2-2.6c0-1.8,1.4-4.3,4-4.3c0.7,0,1.6,0.4,1.6,1.4
			c0,1.7-2.6,2.6-4,2.6c-0.1,0.5,0,1.7,1.1,1.7c0.4,0,1-0.2,1.6-0.6L293,134.9z M292.3,130.6c0-0.4-0.2-0.6-0.6-0.6
			c-0.7,0-1.5,0.9-1.8,2.1C291.2,131.9,292.3,131.4,292.3,130.6z"/>
		<path class="st5" d="M294.3,135c0-0.7,0.6-1.2,1.1-1.2c0.5,0,0.7,0.5,0.7,0.8c0,0.8-0.7,1.2-1.1,1.2
			C294.6,135.8,294.3,135.3,294.3,135z"/>
	</g>
</g>
</svg>
