<?xml version="1.0" encoding="utf-8"?>
<!-- Generator: Adobe Illustrator 16.0.0, SVG Export Plug-In . SVG Version: 6.00 Build 0)  -->
<!DOCTYPE svg PUBLIC "-//W3C//DTD SVG 1.1//EN" "http://www.w3.org/Graphics/SVG/1.1/DTD/svg11.dtd">
<svg version="1.1" id="Capa_1" xmlns="http://www.w3.org/2000/svg" xmlns:xlink="http://www.w3.org/1999/xlink" x="0px" y="0px"
	 width="60px" height="41.29px" viewBox="104.416 41.916 60 41.29" enable-background="new 104.416 41.916 60 41.29"
	 xml:space="preserve">
<g>
	<g>
		<path fill="#337AB7" d="M163.599,60.588l-17.854-17.855c-1.09-1.089-2.856-1.089-3.945,0c-1.09,1.089-1.09,2.856,0,3.945
			l13.092,13.092h-47.685c-1.541,0-2.79,1.25-2.79,2.79s1.25,2.79,2.79,2.79h47.685l-13.092,13.092c-1.09,1.089-1.09,2.856,0,3.945
			c0.545,0.544,1.259,0.817,1.973,0.817s1.429-0.273,1.973-0.817l17.854-17.855C164.688,63.444,164.688,61.678,163.599,60.588z"/>
	</g>
</g>
</svg>
