<svg xmlns="http://www.w3.org/2000/svg" xmlns:xlink="http://www.w3.org/1999/xlink" width="159.776" height="135.598" viewBox="0 0 159.776 135.598">
  <defs>
    <linearGradient id="linear-gradient" x1="0.5" y1="-0.521" x2="0.5" y2="1.378" gradientUnits="objectBoundingBox">
      <stop offset="0" stop-color="#1599ff"/>
      <stop offset="1" stop-color="#000cbf"/>
    </linearGradient>
    <linearGradient id="linear-gradient-2" x1="0.5" y1="-0.797" x2="0.5" y2="1.169" gradientUnits="objectBoundingBox">
      <stop offset="0" stop-color="#1599ff"/>
      <stop offset="0.106" stop-color="#0f72ed"/>
      <stop offset="1" stop-color="#000cbf"/>
    </linearGradient>
  </defs>
  <g id="Grupo_138" data-name="Grupo 138" transform="translate(-148.756 189.757)">
    <path id="Trazado_326" data-name="Trazado 326" d="M175.524-78.136l-26.768-40.629c.978-.688,1.252-1.037,1.57-1.082,10.424-1.469,10.147-1.5,11.616-11.5,7.238-49.216,62.815-75.527,105.7-46.028,6.952,4.782,6.881,4.886,2.387,11.655-3.8,5.72-7.6,11.436-10.584,15.923-8.435-3.8-15.758-8.534-23.786-10.436-21.037-4.985-43.438,11.66-45.423,32.729-.636,6.741-.222,7.171,6.861,7.426,1.473.053,2.939.272,5.633.534Z" fill="url(#linear-gradient)"/>
    <path id="Trazado_327" data-name="Trazado 327" d="M200.192-94.577c14.96,12.653,30.716,16.009,47.586,6.825C260-94.4,266.544-105.113,267.683-119.514l-13.349-.825c9.218-14.021,17.886-27.207,27.4-41.685l26.8,40.539c-.6.71-.8,1.181-1.059,1.215-10.4,1.353-10.4,1.348-12.32,11.406-9,47.183-62.924,69.9-103.46,43.581-7.484-4.859-7.5-4.872-2.644-12.36C192.6-83.111,196.215-88.539,200.192-94.577Z" fill="url(#linear-gradient-2)"/>
  </g>
</svg>
