<?xml version="1.0" encoding="utf-8"?>
<!-- Generator: Adobe Illustrator 16.0.0, SVG Export Plug-In . SVG Version: 6.00 Build 0)  -->
<!DOCTYPE svg PUBLIC "-//W3C//DTD SVG 1.1//EN" "http://www.w3.org/Graphics/SVG/1.1/DTD/svg11.dtd">
<svg version="1.1" id="Capa_1" xmlns="http://www.w3.org/2000/svg" xmlns:xlink="http://www.w3.org/1999/xlink" x="0px" y="0px"
	 width="325px" height="524.893px" viewBox="0 0 325 524.893" enable-background="new 0 0 325 524.893" xml:space="preserve">
<g>
	<defs>
		<rect id="SVGID_1_" width="325" height="524.893"/>
	</defs>
	<clipPath id="SVGID_2_">
		<use xlink:href="#SVGID_1_"  overflow="visible"/>
	</clipPath>
	<g clip-path="url(#SVGID_2_)">
		<defs>
			<rect id="SVGID_3_" width="325" height="524.893"/>
		</defs>
		<clipPath id="SVGID_4_">
			<use xlink:href="#SVGID_3_"  overflow="visible"/>
		</clipPath>
		<path clip-path="url(#SVGID_4_)" fill="#5B400A" d="M91.605,41.426c0,0-13.239,4.923-19.844,35.827
			c-8.692,40.658,26.254,71.959,26.254,71.959s46.768,11.944,62.143-1.975c15.376-13.917,17.259-22.913,27.867-31.633
			c10.604-8.72,17.897-5.377,17.897-5.377s1.459-13.796-14.709-15.439c-16.165-1.642-27.499-4.103-33.332-21.24
			c-5.835-17.14-8.145-28.444-19.236-34.066C127.553,33.86,91.605,41.426,91.605,41.426"/>
	</g>
	<g clip-path="url(#SVGID_2_)">
		<defs>
			<rect id="SVGID_5_" width="325" height="524.893"/>
		</defs>
		<clipPath id="SVGID_6_">
			<use xlink:href="#SVGID_5_"  overflow="visible"/>
		</clipPath>
		<path clip-path="url(#SVGID_6_)" fill="#DAECF5" d="M181.016,101.951c0,0-31.316,18.947-32.15,26.035
			c-0.835,7.088,29.651,69.258,29.651,69.258l-0.64,56.948l72.095-4.086l-8.267-37.39c-0.942-35.325-1.547-83.479-3.612-88.899
			c-3.336-8.757,1.333-8.803-7.256-12.532s-24.008-9.334-24.008-9.334C195.111,94.505,184.7,99.093,181.016,101.951"/>
		<path clip-path="url(#SVGID_6_)" fill="#A8CEEA" d="M230.837,111.285c2.527,1.125,7.296,3.656,11.426,8.779
			c4.592,5.697,5.938,11.553,6.393,14.316c7.319,17.504,13.413,31.855,19.04,44.475c2.007,4.5,5.562,12.381,2.085,17.929
			c-0.709,1.131-2.675,3.708-9.589,5.42c-14.361,3.559-31.951-1.094-32.105-5.837c-0.077-2.398,4.263-6.01,25.434-10.841
			l-10.841-19.18c-0.587-7.945-1.718-16.932-3.752-26.685C236.68,128.883,233.79,119.379,230.837,111.285"/>
		<path clip-path="url(#SVGID_6_)" fill="#003E71" d="M222.804,159.426c-6.313,2.006-10.897,3.591-15.818,4.991
			c-3.173,0.9-5.215,1.495-6.771,1.621c1.52-1.141,3.454-2.327,5.746-3.628c3.146-1.788,5.947-3.447,9.023-5.366
			c2.586-1.61,4.489-3.723,3.28-6.896c-1.243-3.267-4.754-2.34-4.754-2.34c-1.161,0.272-6.539,2.081-11.463,3.481
			c-3.404,0.966-5.508,1.581-7.105,1.641c1.552-1.193,3.565-2.435,5.974-3.802c4.707-2.672,15.057-7.55,15.057-7.55l-2.638-6.924
			c0,0-9.893,5.146-14.707,7.771c-5.701,3.109-8.481,5.255-9.267,6.434c-0.783,1.18-2.005,3.758-0.832,6.835
			c0.682,1.79,1.723,2.716,2.478,3.18c0.022,0.015,0.047,0.029,0.07,0.044c0.078,0.046,0.152,0.087,0.224,0.124
			c0.021,0.011,0.042,0.023,0.065,0.034c0.341,0.171,0.565,0.228,0.574,0.229c0.523,0.168,1.116,0.255,1.805,0.255
			c1.239,0,2.777-0.273,4.729-0.824c0.037-0.011,0.074-0.021,0.11-0.032c-2.362,1.538-3.679,2.685-4.18,3.437
			c-0.114,0.173-0.237,0.378-0.362,0.607c-0.229,0.375-0.803,1.453-0.918,2.944c-0.007,0.074-0.012,0.15-0.017,0.226
			c-0.002,0.021-0.003,0.042-0.004,0.063c-0.053,0.913,0.061,1.923,0.469,2.996c1.174,3.078,3.453,3.493,3.453,3.493l-0.021-0.014
			c0.576,0.182,1.229,0.277,1.988,0.277c1.201,0,2.658-0.232,4.451-0.705c6.003-1.585,10.021-2.874,11.202-3.237
			c1.185-0.362,4.081-1.24,10.478-3.276L222.804,159.426z M214.813,147.833c-0.062-0.016-0.125-0.037-0.188-0.047
			C214.691,147.797,214.755,147.813,214.813,147.833 M214.561,147.775c-0.07-0.011-0.14-0.013-0.21-0.019
			C214.423,147.76,214.493,147.767,214.561,147.775 M198.373,158.376c-1.932,0.545-3.444,0.811-4.629,0.811
			c-0.878,0-1.599-0.137-2.215-0.44c-0.206-0.472-0.299-1.263,0.306-2.463c0.503-0.997,1.397-1.975,2.636-2.983
			c0.072,0.002,0.144,0.009,0.217,0.009c1.617,0,3.66-0.581,7.045-1.543l0.417-0.119c2.76-0.785,5.601-1.678,7.884-2.396
			c1.712-0.539,3.064-0.964,3.563-1.081c0.167-0.04,0.342-0.06,0.52-0.06c0.32,0,0.644,0.067,0.962,0.186
			c-0.124,0.382-0.745,1.02-2.333,2.078c-1.803,1.201-4.261,2.707-9.073,5.332c-1.53,0.834-2.843,1.596-3.97,2.292
			C199.26,158.124,198.816,158.251,198.373,158.376 M214.537,168.433l-0.527,0.164c-1.606,0.5-5.365,1.67-10.662,3.069
			c-1.765,0.467-3.189,0.693-4.355,0.693c-0.958,0-1.752-0.148-2.428-0.471c-0.193-0.448-0.257-1.185,0.315-2.321
			c0.526-1.046,1.488-2.073,2.821-3.133c1.609-0.018,3.652-0.597,7.004-1.551l0.381-0.108c3.346-0.95,6.524-1.984,10.207-3.18
			c1.669-0.542,3.392-1.102,5.289-1.706l2.053,5.389c-5.749,1.829-8.618,2.704-9.858,3.082L214.537,168.433z"/>
	</g>
	<g clip-path="url(#SVGID_2_)">
		<defs>
			<rect id="SVGID_7_" width="325" height="524.893"/>
		</defs>
		<clipPath id="SVGID_8_">
			<use xlink:href="#SVGID_7_"  overflow="visible"/>
		</clipPath>
		<path clip-path="url(#SVGID_8_)" fill="#101210" d="M179.386,388.129c0.051,1.001,0.101,2.019,0.166,3.036
			c2.119,36.542,5.905,70.515,10.591,101.585h14.544c1.051-33.355,2.118-66.729,3.169-100.102
			c1.401-32.604,2.819-65.193,4.236-97.799l11.124,0.985c10.624,44.346,22.716,79.837,33.54,107.055
			c2.918,7.355,5.753,14.11,8.438,20.281c7.905,18.146,31.271,69.58,31.271,69.58h12.908c-7.955-29.902-15.911-59.79-23.865-89.693
			c-12.492-46.899-29.4-106.523-41.876-153.438c-23.049,3.885-41.218,1.242-64.267,5.128
			C177.715,289.436,177.101,346.918,179.386,388.129"/>
		<path clip-path="url(#SVGID_8_)" fill="#A8CEEA" d="M230.837,111.285c2.527,1.125,7.296,3.656,11.426,8.779
			c4.592,5.697,5.938,11.553,6.393,14.316c7.319,17.504,13.413,31.855,19.04,44.475c2.007,4.5,5.562,12.381,2.085,17.929
			c-0.709,1.131-2.675,3.708-9.589,5.42c-14.361,3.559-31.951-1.094-32.105-5.837c-0.077-2.398,4.263-6.01,25.434-10.841
			l-10.841-19.18c-0.587-7.945-1.718-16.932-3.752-26.685C236.68,128.883,233.79,119.379,230.837,111.285"/>
		<path clip-path="url(#SVGID_8_)" d="M256.755,402.89c2.919,7.354,5.754,14.109,8.439,20.28
			c7.905,18.146,31.271,69.58,31.271,69.58h12.91c-7.956-29.902-15.912-59.79-23.867-89.693c-1.701,2.384-3.502,4.42-5.17,5.403
			C275.484,411.295,260.941,404.857,256.755,402.89"/>
		<path clip-path="url(#SVGID_8_)" d="M179.386,388.129c0.051,1.001,0.101,2.019,0.166,3.036
			c2.119,36.542,5.905,70.515,10.591,101.585h14.544c1.051-33.355,2.118-66.729,3.169-100.102c0,0-2.447,4.925-5.6,9.849
			c-3.688,5.761-6.839,9.752-9.828,9.849C187.665,412.5,182.652,402.365,179.386,388.129"/>
	</g>
	<g clip-path="url(#SVGID_2_)">
		<defs>
			<rect id="SVGID_9_" width="325" height="524.893"/>
		</defs>
		<clipPath id="SVGID_10_">
			<use xlink:href="#SVGID_9_"  overflow="visible"/>
		</clipPath>
		<path clip-path="url(#SVGID_10_)" fill="#005CA4" d="M183.918,100.175c0,0-33.595,18.77-35.053,27.812
			c-1.136,7.045,24.897,93.57,24.897,93.57l-1.906,54.7l43.595,6.518C210.531,215.506,197.862,153.981,183.918,100.175"/>
		<path clip-path="url(#SVGID_10_)" fill="#005CA4" d="M203.873,100.309c17.155,30.333,25.866,95.787,33.781,182.465
			c0.92,2.578,17.95-7.188,17.95-7.188l-13.899-62.871c0,0-0.276-80.144-3.612-88.899c-3.336-8.756,1.332-8.804-7.256-12.532
			C222.248,107.555,217.901,106.09,203.873,100.309"/>
		<path clip-path="url(#SVGID_10_)" fill="#003E71" d="M230.837,111.285c2.527,1.125,7.296,3.656,11.426,8.779
			c4.592,5.697,5.938,11.553,6.393,14.316c7.319,17.504,13.413,31.855,19.04,44.475c2.007,4.5,5.562,12.381,2.085,17.929
			c-0.709,1.131-2.675,3.708-9.589,5.42c-14.361,3.559-31.951-1.094-32.105-5.837c-0.077-2.398,4.263-6.01,25.434-10.841
			c-3.614-6.393-8.89-13.003-12.504-19.396c-0.588-7.945-0.055-16.715-2.089-26.468C236.68,128.883,233.79,119.379,230.837,111.285"
			/>
	</g>
	<g clip-path="url(#SVGID_2_)">
		<defs>
			<rect id="SVGID_11_" width="325" height="524.893"/>
		</defs>
		<clipPath id="SVGID_12_">
			<use xlink:href="#SVGID_11_"  overflow="visible"/>
		</clipPath>
		<path clip-path="url(#SVGID_12_)" fill="#003E71" d="M187.306,98.849c0,0,5.102,33.345,12.783,71.792
			c-1.871-0.97-25.963-38.358-25.963-38.358l6.711-7.468l-7.18-4.09l6.522-18.264C180.18,102.462,182.139,96.612,187.306,98.849"/>
		<path clip-path="url(#SVGID_12_)" fill="#003E71" d="M202.399,99.132c0.068,0.289,0.101,0.407,0.219,0.609
			c9.794,16.741,21.06,67.507,21.06,67.507c2.445-33.046,0.957-40.911,0.957-40.911l-6.904-4.254l1.69-4.066
			c0,0-13.137-16.46-13.371-16.813C204.988,99.516,203.056,98.692,202.399,99.132"/>
	</g>
	<g clip-path="url(#SVGID_2_)">
		<defs>
			<rect id="SVGID_13_" width="325" height="524.893"/>
		</defs>
		<clipPath id="SVGID_14_">
			<use xlink:href="#SVGID_13_"  overflow="visible"/>
		</clipPath>
		<path clip-path="url(#SVGID_14_)" fill="#002A45" d="M157.51,151.642c0.277,0.729,27.042,80.025,40.192,78.081
			c13.149-1.946,36.108-26.128,36.108-26.128l11.817-0.26l-25.326-9.469l-33.077-7.518L157.51,151.642z"/>
	</g>
	<g clip-path="url(#SVGID_2_)">
		<defs>
			<rect id="SVGID_15_" width="325" height="524.893"/>
		</defs>
		<clipPath id="SVGID_16_">
			<use xlink:href="#SVGID_15_"  overflow="visible"/>
		</clipPath>
		<path clip-path="url(#SVGID_16_)" fill="#E9C089" d="M245.181,174.602c0,0,4.698-6.326,10.77-1.212
			c8.79,7.404,2.773,11.454-0.347,13.165C255.604,186.554,254.943,179.658,245.181,174.602"/>
		<path clip-path="url(#SVGID_16_)" fill="#002A45" d="M245.181,174.602c-3.959,0.378-26.052,13.611-37.681,19.76
			c-8.767-17.676-38.155-65.238-44.577-68.422c-6.97-3.455-14.057,2.159-14.057,2.159s30.428,91.122,43.566,95.008
			c0,0,6.298,7.485,15.508,2.303c9.208-5.183,47.664-38.856,47.664-38.856S255.162,180.159,245.181,174.602"/>
		<path clip-path="url(#SVGID_16_)" fill="#003E71" d="M245.181,174.602c-3.959,0.364-26.052,11.423-37.681,17.359
			c-8.767-17.065-38.155-62.986-44.577-66.06c-6.97-3.335-12.875-1.084-14.058,2.085c-1.401,7.409,27.176,78.478,43.057,89.272
			c0,0,11.908,7.461,21.117,2.457c9.21-5.003,42.123-34.89,42.123-34.89S252.806,178.125,245.181,174.602"/>
	</g>
	<g clip-path="url(#SVGID_2_)">
		<defs>
			<rect id="SVGID_17_" width="325" height="524.893"/>
		</defs>
		<clipPath id="SVGID_18_">
			<use xlink:href="#SVGID_17_"  overflow="visible"/>
		</clipPath>
		<path clip-path="url(#SVGID_18_)" fill="#E9C089" d="M224.965,183.237c0,0-14.884-9.971-18.862-5.478
			c-3.979,4.496-5.673,15.92-2.477,17.888c3.195,1.968,14.93-3.035,16.359-5.537l1.429-2.501L224.965,183.237z"/>
	</g>
	<g clip-path="url(#SVGID_2_)">
		<defs>
			<rect id="SVGID_19_" width="325" height="524.893"/>
		</defs>
		<clipPath id="SVGID_20_">
			<use xlink:href="#SVGID_19_"  overflow="visible"/>
		</clipPath>
		<g clip-path="url(#SVGID_20_)">
			<g>
				<defs>
					<rect id="SVGID_21_" x="73.38" y="31.504" width="79.511" height="126.851"/>
				</defs>
				<clipPath id="SVGID_22_">
					<use xlink:href="#SVGID_21_"  overflow="visible"/>
				</clipPath>
				<path clip-path="url(#SVGID_22_)" fill="#5B400A" d="M122.016,34.751c-17.449-2.434-35.369,15.666-41.952,44.822
					c-7.653,33.883,14.685,74.779,14.685,74.779l30.123,1.969c0,0,22.155-32.229,23.346-63.86
					C149.41,60.828,134.848,36.539,122.016,34.751"/>
			</g>
		</g>
		<path clip-path="url(#SVGID_20_)" fill="#101210" d="M131.045,392.869c-0.263,0.893-0.083,1.873-0.14,2.819
			c-1.781,33.935-5.335,40.081-9.276,68.937l-10.188,2.867c-0.883-30.977-3.449-39.434-4.333-70.426
			c-1.178-30.28-6.451-60.146-7.642-90.426l-2.791,0.272c-8.932,41.185-21.582,74.387-30.683,99.663
			c-2.455,6.83-4.837,13.104-7.095,18.835c-6.647,16.851-15.395,37.275-15.395,37.275l-9.215-2.711
			c6.688-27.771,3.764-24.929,7.529-53.245c5.695-42.812,8.613-88.792,19.858-125.363c19.379,3.609,65.021-1.348,84.399,2.261
			C147.465,315.845,144.488,347.3,131.045,392.869"/>
		<path clip-path="url(#SVGID_20_)" d="M65.994,406.576c-2.454,6.83-4.838,13.104-7.095,18.835
			c-6.647,16.851-15.395,37.275-15.395,37.275l-9.215-2.711c6.689-27.771,0.84-25.474,7.529-53.245
			c1.43,2.215,2.944,4.105,4.347,5.019C50.246,414.383,62.474,408.403,65.994,406.576"/>
		<path clip-path="url(#SVGID_20_)" d="M131.045,392.869c-0.042,0.929-0.083,1.873-0.14,2.819
			c-1.781,33.935-5.335,40.081-9.276,68.937l-10.188,2.867c-0.883-30.977-3.449-39.434-4.333-70.426c0,0,2.057,4.573,4.708,9.146
			c3.101,5.35,5.75,9.056,8.263,9.146C124.084,415.502,128.299,406.089,131.045,392.869"/>
		<path clip-path="url(#SVGID_20_)" fill="#005CA4" d="M121.036,123.313c5.622,0.771,21.83,3.748,31.84,17.245
			c3.813,5.139,7.618,12.995,7.989,27.825c0.275,11.019-25.823,75.791-25.823,75.791c9.589,19.979,12.793,34.232,14.93,46.921
			c-8.81,9.359-33.124,15.205-42.652,10.99c-8.588-3.799-12.492-11.208-13.65-13.651c-5.425,0.175-10.851,0.351-16.276,0.525
			c-0.292,1.899-1.971,5.806-7.775,10.464c-2.712,2.176-12.758,4.495-14.629,4.988c6.043-30.967,8.657-37.656,18.068-62.97
			c4.086-10.989,4.067-66.483,12.876-87.383c3.069-7.282,7.933-13.614,7.933-13.614c2.742-3.57,6.144-7.397,12.28-11.136
			C111.565,126.003,117.008,123.922,121.036,123.313"/>
		<path clip-path="url(#SVGID_20_)" fill="#002A45" d="M131.224,256.514c-3.54,4.084-7.008,5.81-9.701,6.59
			c-13.658,3.947-32.617-9.164-46.123-33.311c2.318,0.366,4.636,0.731,6.955,1.098C98.645,239.432,114.934,247.973,131.224,256.514"
			/>
		<polyline clip-path="url(#SVGID_20_)" fill="#002A45" points="119.883,222.38 117.681,210.994 117.542,228.901 120.709,230.094 
			131.568,174.273 		"/>
		<path clip-path="url(#SVGID_20_)" fill="#DAECF5" d="M111.589,168.67c-6.488,17.28-12.078,32.676-16.179,48.09l-6.564-0.391
			l-4.145-1.828c3.89-19.167,14.698-63.356,17.591-74.708c4.642-6.362,24.635-6.342,29.276-12.704
			C128.419,135.775,120.46,153.764,111.589,168.67"/>
		<path clip-path="url(#SVGID_20_)" fill="#003352" d="M97.835,135.822c0,0-15.591,9.222-18.342,18.499
			c-2.75,9.277-27.643,81.354-19.833,83.63c7.809,2.274,59.882-8.044,59.882-8.044c-1.292-4.655-2.584-9.309-3.876-13.962
			c-5.526,0.657-11.975,1.063-19.156,0.854c-7.421-0.216-14.03-1.045-19.645-2.074c1.156-8.549,2.615-18.974,4.393-30.871
			c2.532-16.943,3.674-23.221,6.955-31.114C91.34,145.214,95.093,139.553,97.835,135.822"/>
		<path clip-path="url(#SVGID_20_)" fill="#B18C5E" d="M110.325,226.567l6.269,2.197l4.18-3.699l1.014-4.506
			c0,0-7.26-3.478-7.382-3.294s-4.759,2.563-4.759,2.563L110.325,226.567z"/>
		<path clip-path="url(#SVGID_20_)" fill="#003E71" d="M155.902,145.243c-3.53,1.243-8.972,3.616-13.954,8.191
			c-9.746,8.95-10.571,19.803-15.06,43.016c-1.533,7.93-3.906,19.434-7.346,33.456c-13.921-6.139-27.842-12.278-41.763-18.417
			c-0.541-0.034-4.261-0.2-7.138,2.746c-2.926,2.997-2.614,6.795-2.562,7.322c7.868,8.35,25.729,26.396,43.749,36.002
			c4.871,2.597,10.83,5.064,16.53,3.072c5.639-1.971,8.21-7.555,9.55-10.583c16.334-36.885,24.335-55.625,24.043-77.492
			C161.769,158.985,159.815,152.79,155.902,145.243"/>
		<path clip-path="url(#SVGID_20_)" fill="#E9C089" d="M107.292,224.484c0.07-0.987,0.172-2.273,0.321-3.797
			c0.1-1.036,0.181-1.763,0.667-2.507c0.446-0.685,1.011-1.044,1.254-1.2c2.925-1.88,5.54-4.215,8.448-6.123
			c0,0-2.647-4.209,0.365-4.393c3.011-0.183,12.935,8.585,10.773,9.525c-2.161,0.939-7.281-2.203-7.281-2.203
			s6.163,4.326,4.472,5.81c-1.69,1.482-3.489,1.145-3.489,1.145s-1.28,1.831-2.928,1.831c-1.647,0-7.321-2.747-7.321-2.747
			s5.646,2.708,3.554,3.916c-2.09,1.209-5.034-0.621-5.034-0.621c-0.062,0.987-0.125,1.977-0.187,2.964
			C109.703,225.553,108.498,225.018,107.292,224.484"/>
		<path clip-path="url(#SVGID_20_)" fill="#D9A37B" d="M107.928,110.156c-1.918,9.617-1.861,39.089-1.172,42.633
			c3.429-1.667,5.02-5.25,9.751-9.986c5.97-5.975,10.938-14.083,12.503-17.988c-4.154-9.567-4.159-16.891-2.461-26.311
			C118.334,104.562,116.144,104.098,107.928,110.156"/>
		<path clip-path="url(#SVGID_20_)" fill="#DAECF5" d="M93.669,288.695c-3.064-15.093-3.979-23.166-4.313-39.658l-7.936-9.692
			l-3.765,49.612C82.994,288.87,88.332,288.783,93.669,288.695"/>
		<polygon clip-path="url(#SVGID_20_)" fill="#C3D4DE" points="106.757,152.79 126.875,122.124 126.637,118.003 132.484,126.072 
			117.542,156.535 		"/>
		<polygon clip-path="url(#SVGID_20_)" fill="#003E71" points="127.92,119.773 129.425,119.773 138.683,128.664 127.819,164.328 
			111.589,168.67 132.484,126.072 		"/>
		<path clip-path="url(#SVGID_20_)" fill="#003E71" d="M95.815,166.128l-9.621-4.464c6.398-12.03,14.052-24.052,20.272-32.583
			c-0.046,0.741-0.03,3.202-0.03,3.202C103.724,138.625,95.815,166.128,95.815,166.128"/>
	</g>
	<g clip-path="url(#SVGID_2_)">
		<defs>
			<path id="SVGID_23_" d="M93.669,170.803l-5.559,27.03l12.3,2.137l10.906-30.571c-2.184-0.485-4.298-0.672-6.261-0.672
				C98.514,168.727,93.669,170.803,93.669,170.803"/>
		</defs>
		<clipPath id="SVGID_24_">
			<use xlink:href="#SVGID_23_"  overflow="visible"/>
		</clipPath>
		<path clip-path="url(#SVGID_24_)" fill="#003E71" d="M110.242,187.898c-4.714,1.498-8.138,2.681-11.813,3.726
			c-2.369,0.673-3.894,1.117-5.055,1.21c1.134-0.851,2.578-1.736,4.289-2.708c2.35-1.335,4.442-2.574,6.738-4.007
			c1.932-1.202,3.352-2.78,2.45-5.15c-0.929-2.439-3.55-1.747-3.55-1.747c-0.867,0.204-4.883,1.553-8.56,2.599
			c-2.541,0.722-4.112,1.181-5.305,1.226c1.158-0.891,2.663-1.818,4.461-2.839c3.514-1.995,11.242-5.638,11.242-5.638l-1.969-5.17
			c0,0-7.387,3.842-10.982,5.804c-4.257,2.321-6.334,3.923-6.919,4.804s-1.497,2.806-0.622,5.104
			c0.509,1.337,1.287,2.029,1.85,2.375c0.017,0.011,0.035,0.021,0.054,0.032c0.058,0.034,0.113,0.066,0.166,0.093
			c0.017,0.009,0.032,0.018,0.049,0.025c0.255,0.127,0.423,0.17,0.43,0.171c0.39,0.125,0.834,0.19,1.348,0.19
			c0.926,0,2.074-0.203,3.532-0.616c0.027-0.007,0.055-0.015,0.083-0.022c-1.765,1.147-2.748,2.004-3.122,2.565
			c-0.085,0.129-0.177,0.283-0.271,0.454c-0.171,0.281-0.6,1.085-0.686,2.198c-0.005,0.056-0.009,0.112-0.013,0.169
			c0,0.016-0.001,0.031-0.001,0.046c-0.04,0.683,0.045,1.436,0.35,2.237c0.875,2.299,2.579,2.609,2.579,2.609
			s-0.007-0.004-0.017-0.011c0.43,0.136,0.917,0.207,1.484,0.207c0.897,0,1.986-0.173,3.324-0.526
			c4.483-1.185,7.483-2.146,8.366-2.418c0.884-0.27,3.046-0.925,7.823-2.445L110.242,187.898z M104.275,179.241
			c-0.047-0.013-0.094-0.027-0.141-0.036C104.184,179.214,104.231,179.226,104.275,179.241 M104.086,179.198
			c-0.053-0.008-0.105-0.009-0.157-0.014C103.983,179.187,104.035,179.191,104.086,179.198 M91.998,187.114
			c-1.441,0.408-2.572,0.606-3.456,0.606c-0.656,0-1.194-0.103-1.654-0.33c-0.154-0.352-0.223-0.942,0.229-1.838
			c0.375-0.744,1.044-1.475,1.968-2.228c0.054,0.002,0.106,0.006,0.161,0.006c1.207,0,2.733-0.434,5.262-1.153l0.31-0.088
			c2.061-0.585,4.183-1.253,5.887-1.789c1.279-0.402,2.289-0.72,2.662-0.808c0.125-0.028,0.255-0.044,0.388-0.044
			c0.238,0,0.48,0.051,0.718,0.139c-0.092,0.285-0.556,0.762-1.742,1.552c-1.347,0.897-3.181,2.021-6.776,3.981
			c-1.142,0.623-2.123,1.192-2.963,1.711C92.66,186.926,92.329,187.021,91.998,187.114 M104.068,194.623l-0.394,0.123
			c-1.199,0.373-4.005,1.247-7.961,2.292c-1.318,0.348-2.382,0.518-3.253,0.518c-0.715,0-1.307-0.111-1.813-0.352
			c-0.144-0.334-0.191-0.884,0.236-1.732c0.393-0.782,1.111-1.549,2.107-2.34c1.202-0.013,2.727-0.446,5.229-1.158l0.285-0.082
			c2.498-0.709,4.873-1.48,7.622-2.374c1.246-0.405,2.533-0.823,3.95-1.274l1.532,4.025c-4.293,1.365-6.436,2.018-7.361,2.302
			L104.068,194.623z"/>
	</g>
	<g clip-path="url(#SVGID_2_)">
		<defs>
			<rect id="SVGID_25_" width="325" height="524.893"/>
		</defs>
		<clipPath id="SVGID_26_">
			<use xlink:href="#SVGID_25_"  overflow="visible"/>
		</clipPath>
		<polygon clip-path="url(#SVGID_26_)" fill="#002A45" points="79.634,236.743 68.08,221.556 82.993,236.266 		"/>
		<path clip-path="url(#SVGID_26_)" fill="#E9C089" d="M77.78,211.49c-5.607,0.876-8.778,4.302-9.7,10.067
			C63.352,219.087,67.469,205.731,77.78,211.49"/>
		<path clip-path="url(#SVGID_26_)" fill="#C3D4DE" d="M106.757,152.79h-7.012c1.644-7.369,5.747-18.051,6.691-20.507
			C106.202,139.439,106.757,152.79,106.757,152.79"/>
		<path clip-path="url(#SVGID_26_)" fill="#D08A71" d="M93.248,81.083c0.272,5.472-0.959,10.121-4.224,10.284
			c-4.306,0.214-7.732-4.201-8.004-9.672c-0.274-5.472,0.49-9.674,5.827-10.223C90.815,71.062,92.975,75.613,93.248,81.083"/>
		<path clip-path="url(#SVGID_26_)" fill="#D08A71" d="M137.871,84.158c-1.186,5.777-0.632,10.936,2.812,11.666
			c4.546,0.962,8.911-3.155,10.091-8.931c1.186-5.779,1.056-10.38-4.528-11.876C142.091,73.905,139.054,78.379,137.871,84.158"/>
		<path clip-path="url(#SVGID_26_)" fill="#EFD3AA" d="M142.158,96.895c-1.332,9.151-18.243,21.678-24.382,23.2
			c-3.998,1.144-5.118,1.358-8.754-0.079c-5.427-2.118-21.83-15.744-21.856-24.167l-0.674-32.002
			c0.672-15.475,14.576-27.439,31.056-26.721c16.477,0.715,29.486,9.823,28.618,29.313L142.158,96.895z"/>
		<path clip-path="url(#SVGID_26_)" fill="#E7BD93" d="M117.547,37.125c-16.48-0.716-30.383,11.247-31.056,26.721l0.055,2.617
			c5.244-10.231,18.135-15.579,29.55-15.934c8.358-0.261,17.45,4.683,20.917,12.534c2.901,6.57,3.379,13.721,2.404,20.8
			c-1.028,7.455-2.441,15.285-7.323,21.231c-5.048,6.152-14.09,12.524-19.297,11.626c-10.946-1.887-22.024-12.014-25.667-22.493
			l0.034,1.623c0.027,8.421,16.431,22.046,21.856,24.165c3.636,1.437,4.758,1.224,8.754,0.08
			c6.14-1.522,23.051-14.049,24.382-23.201l4.007-30.453C147.034,46.949,134.024,37.842,117.547,37.125"/>
		<path clip-path="url(#SVGID_26_)" fill="#FEFCF6" d="M95.356,79.502c-0.132,3.018,2.64,5.589,6.188,5.743
			c3.549,0.155,6.53-2.165,6.662-5.184c0.132-3.017-2.713-4.025-6.261-4.179C98.395,75.727,95.487,76.485,95.356,79.502"/>
		<path clip-path="url(#SVGID_26_)" fill="#FEFCF6" d="M120.18,79.871c-0.131,3.013,2.64,5.581,6.191,5.736
			c3.546,0.154,6.528-2.165,6.66-5.178c0.131-3.012-2.715-4.023-6.262-4.176C123.222,76.098,120.311,76.856,120.18,79.871"/>
		<path clip-path="url(#SVGID_26_)" fill="#483411" d="M122.881,80.473c-0.116,2.649,1.366,4.864,3.311,4.948
			c1.942,0.085,3.608-1.993,3.725-4.642c0.114-2.649-1.365-4.865-3.308-4.95C124.665,75.745,122.997,77.823,122.881,80.473"/>
		<path clip-path="url(#SVGID_26_)" fill="#FBF4DB" d="M109.031,93.024c0,0-0.439-2.099-0.123-3.297
			c0.317-1.196,2.526-2.796,2.979-3.333c0.557-0.668,1.671-3.826,1.671-3.826s0.225,2.955,0.013,3.724
			c-0.21,0.772-0.566,2.834-0.764,3.345c-0.2,0.511,0.436,2.184,0.436,2.184S109.438,93.821,109.031,93.024"/>
		<path clip-path="url(#SVGID_26_)" fill="#DDAF88" d="M109.485,91.612c0.324-0.212,2.172-1.839,3.817-1.453
			c1.647,0.385,4.021,2.484,3.228,2.89c-0.795,0.406-3.378,0.406-5.542,0.544C108.828,93.735,108.238,92.639,109.485,91.612"/>
		<path clip-path="url(#SVGID_26_)" fill="#483411" d="M98.347,80.066c-0.117,2.697,1.421,4.955,3.433,5.04
			c2.016,0.089,3.742-2.027,3.858-4.723c0.117-2.698-1.419-4.956-3.433-5.043C100.191,75.252,98.464,77.367,98.347,80.066"/>
		<path clip-path="url(#SVGID_26_)" fill="#B87161" d="M150.842,89.155c0.465-0.773,1.125-1.329,0.894-2.399
			c-0.14-0.646-0.245-1.287-0.279-1.991c-0.054-1.176,0.3-2.108,0.812-2.827c0.912-2.214,2.493-1.528,3.621-0.33
			c-0.104-1.809-0.672-3.111-2.043-3.63c-1.809-0.679-3.307,2.721-4.026,7.019c-0.397,2.378-0.552,4.596-0.356,6.176
			C149.985,90.442,150.476,89.763,150.842,89.155"/>
		<path clip-path="url(#SVGID_26_)" fill="#B87161" d="M85.802,84.904c-0.314-0.775-0.839-1.379-0.474-2.328
			c0.221-0.573,0.41-1.145,0.541-1.787c0.219-1.069,0.029-1.977-0.338-2.708c-0.517-2.164-2.069-1.76-3.275-0.822
			c0.355-1.645,1.064-2.758,2.398-3.034c1.757-0.364,2.644,2.968,2.683,7.013c0.025,2.238-0.153,4.294-0.562,5.716
			C86.405,86.209,86.05,85.515,85.802,84.904"/>
		<path clip-path="url(#SVGID_26_)" fill="#483411" d="M93.298,71.848c0.342-0.119,3.18-1.255,6.597-1.684
			c3.42-0.433,7.746-0.724,7.746-0.724s0.107-2.532-0.641-2.863c-1.947-0.866-6.157-0.007-8.251,0.824
			c-2.58,1.026-5.642,3.101-5.792,3.275C92.805,70.853,93.298,71.848,93.298,71.848"/>
		<path clip-path="url(#SVGID_26_)" fill="#483411" d="M136.994,74.666c-0.35-0.17-3.829-2.476-5.07-2.846
			c-3.667-1.094-9.284-2.758-9.284-2.758s-0.059-2.465,0.667-2.756c1.454-0.581,6.265,1.793,9.317,2.934
			c1.93,0.724,4.011,3.321,4.42,3.948C137.439,73.792,136.994,74.666,136.994,74.666"/>
		<path clip-path="url(#SVGID_26_)" fill="#D08A71" d="M95.124,76.875c-0.445,0.013,1.131-2.28,1.766-2.859
			c0.633-0.582,6.04-1.844,7.754-0.422c1.203,1,2.779,3.658,2.779,3.658s-3.591-1.48-5.21-1.525
			C100.595,75.682,95.341,76.869,95.124,76.875"/>
		<path clip-path="url(#SVGID_26_)" fill="#D08A71" d="M132.711,77.278c0.438,0.026-1.034-2.219-1.638-2.795
			c-0.604-0.577-6.069-1.833-7.645-0.666c-1.231,0.911-2.884,3.4-2.884,3.4s3.603-1.292,5.205-1.281
			C127.349,75.95,132.498,77.263,132.711,77.278"/>
		<path clip-path="url(#SVGID_26_)" fill="#403227" d="M132.663,76.12c0.457,0.382,1.638,2.696,2.069,3.546
			c0,0-4.529-4.019-9.802-3.338c-2.237,0.287-4.707,1.146-4.707,1.146s3.608-2.596,4.749-2.908
			C125.833,74.333,130.461,74.287,132.663,76.12"/>
		<path clip-path="url(#SVGID_26_)" fill="#403227" d="M96.667,75c-0.124,0.121-3.303,3.534-3.613,4.249
			c0,0,5.136-3.918,9.706-3.268c2.218,0.317,4.664,1.271,4.664,1.271s-3.554-2.808-4.686-3.151
			C101.932,73.858,97.721,73.965,96.667,75"/>
		<path clip-path="url(#SVGID_26_)" fill="#E7BD93" d="M97.12,85.413c0,0-0.709,3.079,0.572,3.183
			c1.278,0.104,5.605-0.743,7.126-1.409c1.521-0.669,2.254-2.34,2.254-2.34S102.62,85.694,97.12,85.413"/>
		<path clip-path="url(#SVGID_26_)" fill="#E7BD93" d="M131.889,85.663c0,0,0.819,3.051-0.454,3.2
			c-1.276,0.152-5.632-0.536-7.175-1.149c-1.544-0.611-2.34-2.256-2.34-2.256S126.402,86.144,131.889,85.663"/>
		<path clip-path="url(#SVGID_26_)" fill="#DFA782" d="M124.576,99.345c0,0,0.854-0.486,0.984-0.819
			c0.13-0.334,0.416-0.373,0.63,0.052c0.215,0.424-1.356,1.43-1.356,1.43L124.576,99.345z"/>
		<path clip-path="url(#SVGID_26_)" fill="#C18056" d="M125.201,99.123c0,0,0.261-0.172,0.351-0.403
			c0.09-0.231,0.287-0.256,0.437,0.037c0.148,0.293-0.937,0.985-0.937,0.985L125.201,99.123z"/>
		<path clip-path="url(#SVGID_26_)" fill="#DFA782" d="M102.227,98.314c0,0-0.762-0.621-0.835-0.971
			c-0.072-0.351-0.348-0.437-0.63-0.052c-0.282,0.383,1.102,1.635,1.102,1.635L102.227,98.314z"/>
		<path clip-path="url(#SVGID_26_)" fill="#C18056" d="M101.646,97.992c0,0-0.229-0.214-0.28-0.455
			c-0.051-0.244-0.24-0.301-0.435-0.037c-0.195,0.265,0.759,1.126,0.759,1.126L101.646,97.992z"/>
		<path clip-path="url(#SVGID_26_)" fill="#52291A" d="M101.112,97.616c0,0,1.349,2.23,2.4,3.943c1.053,1.713,6.5,3.29,7.459,3.403
			c0.959,0.113,10.911-1.308,12.465-3.08c1.556-1.774,1.938-2.968,1.938-2.968s-4.407,1.894-10.056,1.796
			C104.7,100.531,101.112,97.616,101.112,97.616"/>
		<path clip-path="url(#SVGID_26_)" fill="#FFFFFF" d="M103.703,99.273c0,0,0.14,1.696,1.467,2.371
			c1.329,0.677,2.523,0.777,2.523,0.777s-2.129-0.207-2.67-0.456c0,0-0.191,0.361-0.06,0.721c0.131,0.359,3.115,2.206,7.709,2.443
			c4.593,0.237,7.442-0.477,9.07-2.197c0,0,0.159-0.838-0.089-0.742c-0.249,0.094-0.957,0.417-2.558,0.37
			c0,0,3.562,0.027,4.514-2.737C123.608,99.824,114.329,101.013,103.703,99.273"/>
		<g opacity="0.5" clip-path="url(#SVGID_26_)">
			<g>
				<defs>
					<rect id="SVGID_27_" x="100.913" y="96.164" width="24.525" height="5.857"/>
				</defs>
				<clipPath id="SVGID_28_">
					<use xlink:href="#SVGID_27_"  overflow="visible"/>
				</clipPath>
				<path clip-path="url(#SVGID_28_)" fill="#F4E8E1" d="M101.112,97.616c0,0,2.125,2.903,11.598,3.34
					c9.89,0.459,12.665-2.042,12.665-2.042s0.156,0.408-3.535,0.1c-3.693-0.308-5.561-1.661-8.971-1.879
					C108.805,96.875,102.389,99.014,101.112,97.616"/>
			</g>
		</g>
		<path clip-path="url(#SVGID_26_)" fill="#CF7463" d="M101.112,97.616c0,0,2.125,2.903,11.598,3.34
			c9.89,0.459,12.665-2.042,12.665-2.042s0.156,0.408-3.535,0.1c-3.693-0.308-5.815-1.398-9.226-1.616
			C108.55,97.139,102.389,99.014,101.112,97.616"/>
		<polygon clip-path="url(#SVGID_26_)" fill="#C67A4F" points="125.53,98.979 125.531,98.978 125.528,98.979 		"/>
		<path clip-path="url(#SVGID_26_)" fill="#AA4D32" d="M112.718,100.71c-6.46-0.309-9.629-1.67-11.043-2.568
			c1.112,0.859,4.109,2.494,11.034,2.815c7.243,0.334,10.669-0.917,11.985-1.61C123.07,100.049,119.517,101.034,112.718,100.71"/>
		<path clip-path="url(#SVGID_26_)" fill="#C67A4F" d="M101.125,97.629c-0.004-0.004-0.01-0.009-0.014-0.013
			c0,0,0.003,0.003,0.009,0.012C101.123,97.628,101.124,97.628,101.125,97.629"/>
		<path clip-path="url(#SVGID_26_)" fill="#DFA782" d="M101.109,97.653c0,0,2.201,11.274,10.943,12.001
			c5.165,0.43,9.461-1.717,13.322-10.741c0,0-2.785,5.962-11.458,6.18C104.924,105.32,101.109,97.653,101.109,97.653"/>
		<path clip-path="url(#SVGID_26_)" fill="#AA4D32" d="M101.112,97.616c0,0,2.247,10.729,10.989,11.458
			c5.165,0.431,9.452-1.595,13.273-10.159c0,0-2.759,5.658-11.428,5.831C104.957,104.924,101.112,97.616,101.112,97.616"/>
		<path clip-path="url(#SVGID_26_)" fill="#CF7463" d="M101.184,97.903c0,0,2.169,9.662,10.912,10.391
			c5.165,0.43,9.281-1.047,13.052-8.99c0,0-2.54,5.341-11.204,5.45C104.961,104.869,101.184,97.903,101.184,97.903"/>
		<path clip-path="url(#SVGID_26_)" fill="#C67A4F" d="M125.522,98.994c0.006-0.011,0.009-0.017,0.009-0.017
			C125.528,98.983,125.526,98.988,125.522,98.994"/>
		<path clip-path="url(#SVGID_26_)" fill="#AA4D32" d="M113.632,105.58c6.311,0.028,10.316-4.295,11.254-5.713
			c0.159-0.304,0.32-0.615,0.48-0.937c-0.173,0.336-3.026,5.647-11.42,5.814c-8.989,0.179-12.834-7.129-12.834-7.129
			s0.051,0.227,0.165,0.613C101.931,99.352,106.175,105.546,113.632,105.58"/>
		<g opacity="0.5" clip-path="url(#SVGID_26_)">
			<g>
				<defs>
					<rect id="SVGID_29_" x="106.76" y="98.75" width="5.701" height="0.836"/>
				</defs>
				<clipPath id="SVGID_30_">
					<use xlink:href="#SVGID_29_"  overflow="visible"/>
				</clipPath>
				<path clip-path="url(#SVGID_30_)" fill="#FFFFFF" d="M106.77,99.002c0.018-0.136,5.28,0.049,5.665,0.311
					C112.818,99.573,106.737,99.231,106.77,99.002"/>
			</g>
		</g>
		<path clip-path="url(#SVGID_26_)" fill="#C18056" d="M126.539,100.158c0,0-0.565-1.761-2.129-2.369c0,0,1.527,0.059,2.087,0.805
			C127.057,99.341,126.539,100.158,126.539,100.158"/>
		<path clip-path="url(#SVGID_26_)" fill="#C18056" d="M100.324,98.647c0,0,0.848-1.643,2.492-1.984c0,0-1.517-0.194-2.192,0.449
			C99.947,97.756,100.324,98.647,100.324,98.647"/>
		<path clip-path="url(#SVGID_26_)" fill="#FFFFFF" d="M111.43,106.628c-0.604-0.109-1.201-0.183-1.785-0.382
			c-0.007-0.002-0.013,0.008-0.006,0.012c0.535,0.342,1.156,0.573,1.8,0.516C111.526,106.766,111.504,106.642,111.43,106.628"/>
		<path clip-path="url(#SVGID_26_)" fill="#FFFFFF" d="M115.88,106.285c-0.486,0.13-0.953,0.268-1.455,0.329
			c-0.542,0.066-1.087,0.009-1.631-0.002c-0.134-0.003-0.192,0.2-0.05,0.242c1.078,0.318,2.168-0.089,3.141-0.55
			C115.895,106.298,115.89,106.282,115.88,106.285"/>
		<path clip-path="url(#SVGID_26_)" fill="#FFFFFF" d="M112.322,106.823c-0.124-0.126-0.276-0.219-0.453-0.154
			c-0.075,0.028-0.061,0.143,0.009,0.166c0.131,0.043,0.27,0.013,0.406,0.042C112.314,106.884,112.349,106.85,112.322,106.823"/>
		<path clip-path="url(#SVGID_26_)" fill="#5B400A" d="M119.821,31.128c-22.143-1.446-37.224,13.186-43.299,32.973
			c-6.548,21.322,1.811,45.077,1.811,45.077s-1.35-21.979,12.402-39.123c8.94-11.144,21.716-12.505,32.772-16.354
			c11.055-3.852,11.68-6.582,11.68-6.582s9.444,15.498,11.355,35.536c1.909,20.038-4.9,39.747-4.9,39.747
			s15.002-17.836,14.178-46.131C154.995,47.973,141.229,32.526,119.821,31.128"/>
		<path clip-path="url(#SVGID_26_)" fill="#403227" d="M94.851,77.844c0,0-2.838,3.018-4.393,0.636
			C90.625,78.494,93.614,79.661,94.851,77.844"/>
		<path clip-path="url(#SVGID_26_)" fill="#403227" d="M95.266,76.997c0,0-2.838,3.018-4.393,0.636
			C91.04,77.646,94.029,78.813,95.266,76.997"/>
		<path clip-path="url(#SVGID_26_)" fill="#403227" d="M134.075,79.446c0,0,2.058,3.595,4.123,1.64
			C138.034,81.062,134.854,81.5,134.075,79.446"/>
		<path clip-path="url(#SVGID_26_)" fill="#403227" d="M134.075,78.402c0,0,2.058,3.595,4.123,1.64
			C138.032,80.017,134.854,80.456,134.075,78.402"/>
		<path clip-path="url(#SVGID_26_)" fill="#FFFFFF" d="M100.592,79.458c0.03-0.35-0.231-0.655-0.579-0.685
			c-0.349-0.029-0.655,0.23-0.685,0.58c-0.029,0.349,0.231,0.655,0.58,0.685C100.255,80.066,100.563,79.808,100.592,79.458"/>
		<path clip-path="url(#SVGID_26_)" fill="#FFFFFF" d="M125.368,79.777c0.028-0.349-0.231-0.655-0.581-0.685
			c-0.348-0.028-0.655,0.231-0.684,0.58c-0.029,0.35,0.23,0.655,0.579,0.685C125.032,80.385,125.338,80.126,125.368,79.777"/>
	</g>
	<g clip-path="url(#SVGID_2_)">
		<defs>
			<rect id="SVGID_31_" width="325" height="524.893"/>
		</defs>
		<clipPath id="SVGID_32_">
			<use xlink:href="#SVGID_31_"  overflow="visible"/>
		</clipPath>
		<path clip-path="url(#SVGID_32_)" d="M24.277,474.889c-0.187,0.09-27.12,14.945-24.031,31.832
			c3.091,16.888,18.769,7.794,18.769,7.794s12.535-6.96,17.923-27.276C38.872,468.046,29.844,472.226,24.277,474.889"/>
		<path clip-path="url(#SVGID_32_)" fill="#E9C089" d="M43.504,462.687c0,0-7.28,18.658-9.077,24.564
			c-3.649,11.997-29.117,20.077-23.191,0.66l13.099-12.271l9.955-15.664L43.504,462.687z"/>
		<path clip-path="url(#SVGID_32_)" d="M126.288,480.398c0.154,0.094,21.755,15.805,12.604,33.666
			c-9.153,17.859-21.566,8.242-21.566,8.242s-10.037-7.362-8.132-28.848C114.15,473.161,121.677,477.58,126.288,480.398"/>
		<path clip-path="url(#SVGID_32_)" fill="#E9C089" d="M111.441,467.492c0,0,0.584,19.733,0.261,25.979
			c-0.658,12.689,21.908,21.235,22.952,0.7l-8.693-12.979l-4.332-16.566L111.441,467.492z"/>
		<path clip-path="url(#SVGID_32_)" d="M206.485,508.566c0,0,2.169-0.088,0.235,2.366c-1.426,1.81-1.465,6.485-10.099,6.485h-18.465
			c0,0-4.044,0-3.936-4.426c0.109-4.426,0.547-13.169,3.059-14.916c2.516-1.748,9.276-15.982,10.628-16.608
			c1.352-0.624,10.929,0.547,12.129,2.623c1.202,2.075,1.094,3.168,1.094,3.168s0.765-2.95,3.168-3.279
			c2.404-0.326,5.137,0.111,4.59,2.516c-0.548,2.403-0.109,8.792-0.548,12.863C207.905,503.429,206.485,508.566,206.485,508.566"/>
		<path clip-path="url(#SVGID_32_)" fill="#005CA4" d="M206.926,506.854c0,0,1.306,0.893-0.086,2.613
			c-1.394,1.723-2.95,5.493-15.078,5.493c-12.131,0-17.415-0.567-17.415-0.567v-3.487c0,0,19.543,0.455,24.38,0
			c4.834-0.453,3.715-2.413,8.06-3.725l0.6-2.303L206.926,506.854z"/>
		<path clip-path="url(#SVGID_32_)" d="M292.734,508.566c0,0-2.17-0.088-0.235,2.366c1.426,1.81,1.465,6.485,10.099,6.485h18.465
			c0,0,4.045,0,3.936-4.426c-0.108-4.426-0.547-13.169-3.058-14.916c-2.516-1.748-9.277-15.982-10.629-16.608
			c-1.352-0.624-10.929,0.547-12.128,2.623c-1.203,2.075-1.094,3.168-1.094,3.168s-0.766-2.95-3.169-3.279
			c-2.404-0.326-5.137,0.111-4.589,2.516c0.547,2.403,0.108,8.792,0.547,12.863C291.314,503.429,292.734,508.566,292.734,508.566"/>
		<path clip-path="url(#SVGID_32_)" fill="#005CA4" d="M292.294,506.854c0,0-1.306,0.893,0.087,2.613
			c1.393,1.723,2.949,5.493,15.078,5.493c12.131,0,17.414-0.567,17.414-0.567v-3.487c0,0-19.543,0.455-24.38,0
			c-4.834-0.453-3.715-2.413-8.06-3.725l-0.6-2.303L292.294,506.854z"/>
	</g>
	<g clip-path="url(#SVGID_2_)">
		<defs>
			<rect id="SVGID_33_" width="325" height="524.893"/>
		</defs>
		<clipPath id="SVGID_34_">
			<use xlink:href="#SVGID_33_"  overflow="visible"/>
		</clipPath>
		<path clip-path="url(#SVGID_34_)" fill="#D9A37B" d="M187.306,96.167c0,0,2.278,10.533,3.308,12.71
			c4.056,7.477,15.97,5.742,13.659-3.635c-1.264-4.483-3.3-10.593-3.3-10.593L187.306,96.167z"/>
		<path clip-path="url(#SVGID_34_)" fill="#E3B287" d="M211.7,51.954c-0.064,6.678,1.665,12.279,5.645,12.319
			c5.257,0.05,9.21-5.496,9.274-12.174s-1.071-11.758-7.598-12.167C214.17,39.628,211.765,45.277,211.7,51.954"/>
		<path clip-path="url(#SVGID_34_)" fill="#E3B287" d="M165.429,54.215c1.153,6.574,0.36,12.393-3.556,13.107
			c-5.174,0.941-9.979-3.856-11.13-10.427c-1.155-6.575-0.861-11.776,5.504-13.29C160.981,42.482,164.276,47.641,165.429,54.215"/>
		<path clip-path="url(#SVGID_34_)" fill="#EFD3AA" d="M160.599,73.479c1.686,9.019,15.92,21.017,22.064,22.279
			c4.011,0.974,15.738,0.253,19.287-1.316c5.293-2.314,17.981-16.225,17.672-24.575l-2.882-31.563
			c-1.284-15.313-15.543-26.62-31.852-25.253c-16.308,1.368-28.842,10.917-27.204,30.204L160.599,73.479z"/>
		<path clip-path="url(#SVGID_34_)" fill="#E9C199" d="M184.889,13.05c16.309-1.368,30.567,9.939,31.852,25.252L218,52.095
			c-0.08-0.719-0.163-1.436-0.259-2.161c-0.143-1.091-0.467-2.12-0.923-3.066c-0.174-0.579-0.359-1.153-0.561-1.717
			c-0.937-11.569-14.899-19.741-25.335-20.912c-1.208-0.135-2.448-0.207-3.692-0.198c-2.556-0.522-5.15-0.688-7.712-0.331
			c-17.183,2.396-17.023,20.175-15.052,33.739c1.071,7.364,1.932,14.779,7.132,20.579c6.197,6.921,13.193,14.65,23.486,12.734
			c8.956-1.665,17.951-9.254,21.08-17.914c2.145-5.939,2.53-11.863,2.09-17.953l1.366,14.971
			c0.311,8.349-12.378,22.259-17.671,24.573c-3.549,1.57-15.276,2.291-19.287,1.318c-6.144-1.264-20.379-13.262-22.064-22.28
			l-2.914-30.223C156.046,23.966,168.581,14.417,184.889,13.05"/>
		<path clip-path="url(#SVGID_34_)" fill="#E9C199" d="M206.837,41.833c-0.385-0.079-3.504-0.538-7.179-0.458
			c-3.68,0.079-6.342,0.594-6.342,0.594s-1.932-5.591,0.061-6.041c2.519-0.571,5.543-0.068,8.772,0.873
			c2.898,0.844,4.5,1.916,4.698,2.086C207.041,39.057,206.837,41.833,206.837,41.833"/>
		<path clip-path="url(#SVGID_34_)" fill="#E9C199" d="M169.655,44.87c0.366-0.063,3.356-0.435,6.972-0.333
			c3.616,0.104,5.215,0.748,5.215,0.748s1.047-4.512-0.975-4.92c-2.547-0.516-4.325-0.6-7.353,0.188
			c-2.717,0.708-3.463,1.322-4.299,1.767C169.021,42.424,169.655,44.87,169.655,44.87"/>
		<path clip-path="url(#SVGID_34_)" fill="#FEFCF6" d="M207.561,48.958c0.24,2.882-2.209,5.438-5.471,5.712
			s-6.103-1.839-6.345-4.722c-0.241-2.882,2.339-3.947,5.603-4.221C204.61,45.455,207.318,46.075,207.561,48.958"/>
		<path clip-path="url(#SVGID_34_)" fill="#FEFCF6" d="M182.475,50.438c0.241,2.882-2.209,5.439-5.472,5.714
			c-3.262,0.273-6.104-1.841-6.345-4.723c-0.241-2.882,2.34-3.949,5.603-4.222C179.522,46.933,182.233,47.556,182.475,50.438"/>
		<path clip-path="url(#SVGID_34_)" fill="#483411" d="M180.082,51.362c0.205,2.456-0.999,4.562-2.691,4.704
			c-1.691,0.142-3.229-1.734-3.436-4.189c-0.206-2.457,0.998-4.563,2.689-4.706C178.339,47.028,179.876,48.906,180.082,51.362"/>
		<path clip-path="url(#SVGID_34_)" fill="#4A3300" d="M211.521,13.966c0,0,6.74,3.838,8.347,7.053
			c1.601,3.206,0.825,8.901-0.479,18.929c-0.37,0.313-1.264,3.215-1.974,5.361c-0.012,0.023-0.024,0.046-0.029,0.055
			c-0.485,1.025-2.654,0.571-2.654,0.571s0.248-3.84-0.621-11.274c-1.486-12.728-7.529-15.668-10.804-17.306
			C202.599,17.002,211.521,13.966,211.521,13.966"/>
		<path clip-path="url(#SVGID_34_)" fill="#4A3300" d="M154.393,44.447c-0.342-0.377-6.281-19.107-5.308-20.99
			c1.674-3.235,13.457-9.464,13.457-9.464s3.854,8.067,3.172,8.488c-4.752,2.944-6.308,5.292-6.339,14.718
			c-0.012,3.635,0.621,7.442,0.718,11.987c0,0-2.177,0.66-2.728-0.358C156.813,47.811,155.648,45.832,154.393,44.447"/>
		<path clip-path="url(#SVGID_34_)" fill="#4A3300" d="M149.085,23.458c1.081-2.09,6.378-5.427,9.995-7.529
			c-1.353,1.769-2.488,3.708-3.441,5.774c-2.319,5.031-0.278,9.917,1.705,14.703c0.707,1.705,1.457,3.396,2.234,5.074
			c0.193,2.376,0.456,4.9,0.516,7.708c0,0-2.178,0.66-2.729-0.358c-0.552-1.018-1.717-2.996-2.973-4.382
			C154.051,44.07,148.11,25.342,149.085,23.458"/>
		<path clip-path="url(#SVGID_34_)" fill="#4A3300" d="M191.922,14.344c-1.191,0.304-11.658,5.715-18.911,7.557
			c-7.253,1.843-6.471,1.367-6.471,1.367l-8.202-6.701c0,0,2.389-6.195,4.243-8.615c1.855-2.422,18.829-6.108,32.843-3.372
			C200.657,5.602,196.758,13.115,191.922,14.344"/>
		<path clip-path="url(#SVGID_34_)" fill="#483411" d="M187.034,16.517c-1.941-0.304-3.885-0.626-5.822-0.991
			c-3.994-0.751-7.99-1.535-11.976-2.33c-1.636-0.327-3.279-0.665-4.877-1.148c0.623,0.157-0.468-0.463-1.346-0.858
			c0.123-0.899,0.204-1.829,0.099-1.54c0.344-0.937,0.715-1.868,1.124-2.782c1.453-0.658,3.691-1.327,6.436-1.887
			c0.342,0.788,0.775,1.575,1.33,2.361c3.835,5.446,11.843,5.833,17.865,5.666c1.624-0.045,3.333-0.119,5.051-0.276
			c-0.893,0.754-1.92,1.338-2.995,1.613C191.457,14.463,189.58,15.359,187.034,16.517"/>
		<path clip-path="url(#SVGID_34_)" fill="#E9C199" d="M167.815,24.209c-0.82-0.783-7.917-6.458-7.917-6.458l4.148,7.027
			C164.047,24.778,170.027,26.313,167.815,24.209"/>
		<path clip-path="url(#SVGID_34_)" fill="#FBF4DB" d="M196.273,62.96c0,0,0.425-2.62-0.02-4.089
			c-0.447-1.469-3.205-3.344-3.779-3.988c-0.714-0.803-2.223-4.659-2.223-4.659s-0.121,3.67,0.174,4.614
			c0.292,0.944,0.83,3.482,1.097,4.109c0.268,0.621-0.416,2.724-0.416,2.724S195.82,63.966,196.273,62.96"/>
		<path clip-path="url(#SVGID_34_)" fill="#DDAF88" d="M195.651,61.23c-0.405-0.248-2.726-2.177-4.702-1.617
			c-1.975,0.559-4.744,3.27-3.764,3.734c0.984,0.464,4.115,0.34,6.745,0.413C196.555,63.83,197.216,62.443,195.651,61.23"/>
		<path clip-path="url(#SVGID_34_)" fill="#BF8162" d="M170.415,49.818c0,0,5.265-2.338,7.464-2.232
			c2.201,0.107,4.623,1.064,4.623,1.064s-3.579-2.537-4.7-2.828C176.678,45.533,173.505,46.445,170.415,49.818"/>
		<path clip-path="url(#SVGID_34_)" fill="#483411" d="M204.59,49.85c0.211,2.502-1.039,4.647-2.795,4.793
			c-1.753,0.147-3.344-1.76-3.555-4.261c-0.208-2.501,1.043-4.648,2.795-4.796C202.791,45.439,204.381,47.349,204.59,49.85"/>
		<path clip-path="url(#SVGID_34_)" fill="#BF8162" d="M207.731,47.29c0,0-5.54-1.579-7.706-1.166c-2.163,0.414-4.425,1.7-4.425,1.7
			s3.187-3.013,4.257-3.457C200.929,43.922,204.2,44.381,207.731,47.29"/>
		<path clip-path="url(#SVGID_34_)" fill="#D08A71" d="M157.341,60.136c-0.499-0.889-1.228-1.537-0.932-2.742
			c0.177-0.727,0.317-1.447,0.376-2.244c0.101-1.327-0.27-2.395-0.824-3.223c-0.96-2.535-2.772-1.807-4.088-0.488
			c0.176-2.044,0.86-3.498,2.429-4.04c2.068-0.711,3.655,3.183,4.329,8.068c0.375,2.702,0.478,5.216,0.204,6.997
			C158.273,61.62,157.736,60.836,157.341,60.136"/>
		<path clip-path="url(#SVGID_34_)" fill="#D08A71" d="M220.05,56.024c0.345-0.961,0.954-1.721,0.461-2.859
			c-0.295-0.687-0.553-1.374-0.745-2.149c-0.32-1.292-0.132-2.406,0.277-3.316c0.525-2.658,2.434-2.244,3.948-1.162
			c-0.513-1.985-1.431-3.305-3.067-3.579c-2.157-0.357-3.071,3.748-2.924,8.676c0.079,2.727,0.397,5.221,0.963,6.935
			C219.379,57.641,219.776,56.78,220.05,56.024"/>
		<path clip-path="url(#SVGID_34_)" fill="#E9C199" d="M207.65,53.046c0,0,1.178,2.904-0.059,3.206
			c-1.237,0.303-5.61,0.153-7.203-0.263c-1.596-0.416-3.302-1.818-3.302-1.818S202.806,52.979,207.65,53.046"/>
		<path clip-path="url(#SVGID_34_)" fill="#E9C199" d="M171.797,54.836c0,0,0.03,3.864,1.243,3.884
			c1.21,0.022,5.231-1.054,6.619-1.787c1.39-0.734,1.943-1.933,1.943-1.933S175.039,54.565,171.797,54.836"/>
		<path clip-path="url(#SVGID_34_)" fill="#4A3300" d="M222.328,6.441c0,0-4.448-0.816-8.123-1.171
			c-2.281-0.221-2.843,0.444-2.843,0.444l6.809-4.69c0,0-10.383-2.009-19.787-0.397c-11.764,2.015-34.405,23.005-31.623,22.829
			c10.234-0.654,21.864,0.635,21.864,0.635s13.024-1.71,17.008-3.278c8.585-3.383,10.825-8.32,12.986-9.531
			c2.16-1.211-0.376-2.026-0.376-2.026L222.328,6.441z"/>
		<path clip-path="url(#SVGID_34_)" fill="#483411" d="M211.576,2.599c-4.563,0.565-9.096,1.353-13.516,2.611
			c-6.152,1.752-11.964,4.467-17.638,7.386c-2.66,1.368-8.433,4.534-11.093,5.998c6.986-6.283,21.698-16.706,29.055-17.967
			c9.403-1.611,19.786,0.398,19.786,0.398l-0.052,0.036C215.921,1.436,213.742,1.982,211.576,2.599"/>
		<path clip-path="url(#SVGID_34_)" fill="#483411" d="M206.883,40.199c-0.365-0.101-3.354-0.776-6.938-0.979
			c-3.59-0.208-6.233,0.07-6.233,0.07s-1.279-5.388,0.707-5.659c2.512-0.341,5.401,0.362,8.442,1.491
			c2.729,1.014,4.173,2.141,4.348,2.316C207.381,37.613,206.883,40.199,206.883,40.199"/>
		<path clip-path="url(#SVGID_34_)" fill="#483411" d="M170.179,44.046c0.369-0.092,3.4-0.71,7.134-0.926
			c3.735-0.211,5.465,0.27,5.465,0.27s0.491-4.427-1.641-4.642c-2.69-0.276-4.532-0.202-7.545,0.814
			c-2.705,0.916-3.393,1.569-4.195,2.069C169.211,41.75,170.179,44.046,170.179,44.046"/>
		<path clip-path="url(#SVGID_34_)" fill="#BF8162" d="M175.229,69.919c0,0,8.633,13.172,18.326,11.491
			c10.918-1.895,14.299-15.085,14.299-15.085S195.032,73.084,175.229,69.919"/>
		<path clip-path="url(#SVGID_34_)" fill="#66172E" d="M207.854,66.325c0,0-12.897,8.072-32.626,3.595
			c0,0,8.228,11.96,18.247,10.566C204.108,79.009,207.854,66.325,207.854,66.325"/>
		<path clip-path="url(#SVGID_34_)" fill="#C01E16" d="M193.476,80.487c-3.129,0.436-6.084-0.433-8.668-1.831
			c0.884-0.427,2.033-0.828,3.552-1.176c6.141-1.407,9.734-0.614,11.674,0.295C198.221,79.109,196.053,80.127,193.476,80.487"/>
		<path clip-path="url(#SVGID_34_)" fill="#F3F7F5" d="M177.852,70.442c13.376,2.372,23.271-0.946,27.593-2.888l0.001,0
			c0,0-3.058,4.713-6.393,5.532c-5.144,1.26-14.063,2.238-16.907,0.824C180.598,73.143,178.995,71.648,177.852,70.442"/>
		<path clip-path="url(#SVGID_34_)" fill="#66172E" d="M207.854,66.325c0,0-12.897,8.072-32.626,3.595
			c0,0,8.228,11.96,18.247,10.566C204.108,79.009,207.854,66.325,207.854,66.325"/>
		<path clip-path="url(#SVGID_34_)" fill="#C01E16" d="M193.476,80.487c-3.129,0.436-6.084-0.433-8.668-1.831
			c0.884-0.427,2.033-0.828,3.552-1.176c6.141-1.407,9.734-0.614,11.674,0.295C198.221,79.109,196.053,80.127,193.476,80.487"/>
		<path clip-path="url(#SVGID_34_)" fill="#F3F7F5" d="M177.852,70.442c13.376,2.372,23.271-0.946,27.593-2.888l0.001,0
			c0,0-3.058,4.713-6.393,5.532c-5.144,1.26-14.063,2.238-16.907,0.824C180.598,73.143,178.995,71.648,177.852,70.442"/>
		<path clip-path="url(#SVGID_34_)" fill="#DEE0DF" d="M205.444,67.554L205.444,67.554c0.001,0-0.814,1.757-4.367,2.976
			c-6.397,2.195-18.024,2.75-21.605,1.432c-0.03-0.012-1.175-1.049-1.62-1.519C191.228,72.814,201.122,69.496,205.444,67.554"/>
		<path clip-path="url(#SVGID_34_)" fill="#BF8162" d="M176.437,68.823c0,0-2.4,1.159-1.367,3.235
			C175.069,72.059,172.857,68.094,176.437,68.823"/>
		<path clip-path="url(#SVGID_34_)" fill="#BF8162" d="M206.166,65.322c0,0,2.616,0.512,2.144,2.784
			C208.31,68.105,209.443,63.709,206.166,65.322"/>
		<path clip-path="url(#SVGID_34_)" fill="#BF8162" d="M198.68,81.169c0,0-5.381,3.754-12.701,0.363
			C185.979,81.532,193.339,88.117,198.68,81.169"/>
		<path clip-path="url(#SVGID_34_)" fill="#FFFFFF" d="M202.361,48.701c-0.029-0.346,0.228-0.649,0.574-0.678
			c0.345-0.03,0.648,0.227,0.677,0.572c0.029,0.347-0.228,0.65-0.573,0.679C202.693,49.303,202.391,49.047,202.361,48.701"/>
		<path clip-path="url(#SVGID_34_)" fill="#FFFFFF" d="M177.884,50.754c-0.029-0.346,0.228-0.649,0.573-0.678
			c0.346-0.03,0.649,0.226,0.678,0.573c0.029,0.346-0.229,0.649-0.573,0.678C178.215,51.356,177.912,51.1,177.884,50.754"/>
	</g>
</g>
</svg>
