<svg xmlns="http://www.w3.org/2000/svg" xmlns:xlink="http://www.w3.org/1999/xlink" width="36" height="36" viewBox="0 0 36 36"><defs><style>.a,.d{fill:#337ab7;}.a{stroke:#fff;}.b{fill:#f5f5f5;}.c{clip-path:url(#a);}</style><clipPath id="a"><circle class="a" cx="18" cy="18" r="18"/></clipPath></defs><g transform="translate(-94 -220)"><path class="b" d="M18,0A18,18,0,1,1,0,18,18,18,0,0,1,18,0Z" transform="translate(94 220)"/><g class="c" transform="translate(94 220)"><g transform="translate(5.948 0.263)"><g transform="translate(0 0)"><path class="d" d="M49.739,29.031a.525.525,0,0,0-.526.525v4.938a.29.29,0,0,1-.29.29H46.1V24.441a.526.526,0,1,0-1.051,0V34.784H39.356l1.65-1.814a.941.941,0,0,0,.227-.755.1.1,0,0,0,0-.016L39.66,22.923l.423-.637a1.192,1.192,0,0,0,.753.326.921.921,0,0,0,.824-.509h0l1.658-3.319,3.776,1.462a3.639,3.639,0,0,1,2.12,3.306v3.552a.526.526,0,1,0,1.051,0V23.553a4.687,4.687,0,0,0-2.774-4.281l-.01,0L41.2,16.836V15.364a4.92,4.92,0,0,0,1.864-3.237,2.276,2.276,0,0,0,1.337-.545,2.228,2.228,0,0,0,.233-3.146V6.49a6.515,6.515,0,1,0-13.03,0v2a2.108,2.108,0,0,0-.542,1.406,2.225,2.225,0,0,0,.775,1.69,2.275,2.275,0,0,0,1.336.545,4.869,4.869,0,0,0,1.971,3.315v1.395l-6.278,2.432-.01,0a4.689,4.689,0,0,0-2.774,4.281V34.494a1.343,1.343,0,0,0,1.342,1.341h5.008a.525.525,0,1,0,0-1.05H31.3V24.441a.526.526,0,1,0-1.051,0V34.784H27.419a.29.29,0,0,1-.29-.29V23.553a3.64,3.64,0,0,1,2.12-3.308l3.772-1.462L34.679,22.1a.921.921,0,0,0,.824.509,1.192,1.192,0,0,0,.753-.326l.424.638L35.107,32.2a.1.1,0,0,1,0,.016.941.941,0,0,0,.227.756l1.65,1.814h-2.1a.525.525,0,1,0,0,1.05H48.923a1.343,1.343,0,0,0,1.342-1.341V29.556a.526.526,0,0,0-.526-.525ZM42.332,18.4l-1.545,3.1-1.859-1.318,1.909-2.355Zm-3.107,3.275-.4.6H37.514l-.4-.6,1.057-.749Zm-3.035-4.672v-.983a5.338,5.338,0,0,0,1.988.377,4.939,4.939,0,0,0,1.966-.409v1.02l-1.975,2.436Zm7.931-7.113a1.176,1.176,0,0,1-.409.893,1.225,1.225,0,0,1-.607.279V8.72A1.189,1.189,0,0,1,44.121,9.892Zm-11,1.172a1.187,1.187,0,0,1-1.016-1.172,1.248,1.248,0,0,1,1.016-1.146Zm.028-3.388a2.6,2.6,0,0,0-.5.112V6.49a5.463,5.463,0,1,1,10.927,0V7.753a2.339,2.339,0,0,0-.474-.092c0-.507,0-.409-1.655-2.191a.936.936,0,0,0-1.194-.146,10.141,10.141,0,0,1-6.127,1.648.935.935,0,0,0-.975.7Zm1.023,3.8V8.029a11.241,11.241,0,0,0,6.571-1.771c.761.816,1.173,1.245,1.306,1.408v3.812a3.938,3.938,0,1,1-7.877,0ZM35.551,21.5l-1.546-3.1,1.492-.578,1.909,2.355Zm.6,10.815,1.522-8.982h.986l1.522,8.982-2.015,2.214Z" transform="translate(-26.077 0.025)"/></g></g></g></g></svg>