<svg xmlns="http://www.w3.org/2000/svg" width="76.442" height="73.697" viewBox="0 0 76.442 73.697"><defs><style>.a{fill:#0393e6;}.b{fill:#0382db;}.c{fill:#105299;}.d{fill:#0399eb;}.e,.f{fill:#f3fbff;font-family:SegoeUI, Segoe UI;}.e{font-size:28px;}.f{font-size:5px;}</style></defs><ellipse class="a" cx="38.221" cy="11.241" rx="38.221" ry="11.241" transform="translate(0 51.214)"/><ellipse class="b" cx="25.585" cy="7.525" rx="25.585" ry="7.525" transform="translate(12.635 52.682)"/><path class="c" d="M411.386,219.27c0,2.584-7.121,4.678-15.905,4.678s-15.906-2.095-15.906-4.678,7.121-4.678,15.906-4.678S411.386,216.687,411.386,219.27Z" transform="translate(-357.259 -160.749)"/><path class="d" d="M417.3,177.218V158.581a9.447,9.447,0,0,0-4.722-8.18l-16.14-9.318a9.443,9.443,0,0,0-9.446,0l-16.14,9.318a9.446,9.446,0,0,0-4.722,8.18v18.637a9.445,9.445,0,0,0,4.722,8.18l16.14,9.319a9.45,9.45,0,0,0,9.446,0l16.14-9.319A9.446,9.446,0,0,0,417.3,177.218Z" transform="translate(-353.496 -139.817)"/><text class="e" transform="translate(29.689 42.363)"><tspan x="0" y="0">2</tspan></text><text class="f" transform="translate(32.134 15.57)"><tspan x="0" y="0">PASO</tspan></text></svg>