<svg xmlns="http://www.w3.org/2000/svg" width="76.442" height="73.697" viewBox="0 0 76.442 73.697"><defs><style>.a{fill:#0393e6;}.b{fill:#0382db;}.c{fill:#105299;}.d{fill:#0758bc;}.e,.f{fill:#f3fbff;font-family:SegoeUI, Segoe UI;}.e{font-size:28px;}.f{font-size:5px;}</style></defs><ellipse class="a" cx="38.221" cy="11.241" rx="38.221" ry="11.241" transform="translate(0 51.214)"/><ellipse class="b" cx="25.585" cy="7.525" rx="25.585" ry="7.525" transform="translate(12.636 52.682)"/><path class="c" d="M110.714,121.453c0,2.584-7.121,4.678-15.906,4.678S78.9,124.037,78.9,121.453s7.121-4.678,15.905-4.678S110.714,118.87,110.714,121.453Z" transform="translate(-56.587 -62.932)"/><path class="d" d="M116.629,79.4V60.763a9.445,9.445,0,0,0-4.722-8.179l-16.14-9.319a9.445,9.445,0,0,0-9.445,0l-16.14,9.319a9.444,9.444,0,0,0-4.723,8.179V79.4a9.445,9.445,0,0,0,4.723,8.18L86.322,96.9a9.445,9.445,0,0,0,9.445,0l16.14-9.318A9.446,9.446,0,0,0,116.629,79.4Z" transform="translate(-52.823 -42)"/><text class="e" transform="translate(30.507 42.363)"><tspan x="0" y="0">1</tspan></text><text class="f" transform="translate(30.574 15.57)"><tspan x="0" y="0">PASO</tspan></text></svg>