<svg xmlns="http://www.w3.org/2000/svg" width="24.797" height="28" viewBox="0 0 24.797 28"><defs><style>.a{fill:#183b63;}</style></defs><g transform="translate(-31.504)"><path class="a" d="M119.05,259.745c0-.754-.524-1.2-1.447-1.2a3.162,3.162,0,0,0-.766.073v2.421a2.874,2.874,0,0,0,.62.048C118.442,261.083,119.05,260.585,119.05,259.745Z" transform="translate(-80.994 -245.398)"/><path class="a" d="M257.2,259.019a3.861,3.861,0,0,0-.84.073v5.364a3.363,3.363,0,0,0,.645.037,2.542,2.542,0,0,0,2.773-2.871A2.351,2.351,0,0,0,257.2,259.019Z" transform="translate(-213.422 -245.852)"/><path class="a" d="M54.732,10.015h-.672V6.771a.474.474,0,0,0-.006-.061.539.539,0,0,0-.13-.356L48.525.188l0,0a.545.545,0,0,0-.109-.092L48.375.071a.566.566,0,0,0-.108-.046l-.029-.01A.548.548,0,0,0,48.111,0H34.844a1.1,1.1,0,0,0-1.1,1.1v8.917h-.672A1.569,1.569,0,0,0,31.5,11.585v8.161a1.57,1.57,0,0,0,1.569,1.569h.672V26.9a1.1,1.1,0,0,0,1.1,1.1H52.961a1.1,1.1,0,0,0,1.1-1.1V21.315h.672A1.57,1.57,0,0,0,56.3,19.746V11.585A1.57,1.57,0,0,0,54.732,10.015ZM34.844,1.1H47.562V6.716a.549.549,0,0,0,.549.549h4.85v2.751H34.844ZM48.323,15.709A4.156,4.156,0,0,1,46.96,19.03a5.882,5.882,0,0,1-3.782,1.058,16.116,16.116,0,0,1-2.1-.121V11.914a16.589,16.589,0,0,1,2.506-.17,5.278,5.278,0,0,1,3.357.876A3.628,3.628,0,0,1,48.323,15.709ZM34,20v-8.09a15.239,15.239,0,0,1,2.506-.17,3.931,3.931,0,0,1,2.506.657,2.4,2.4,0,0,1,.875,1.9,2.617,2.617,0,0,1-.754,1.946,3.8,3.8,0,0,1-2.664.864,4.642,4.642,0,0,1-.632-.037V20H34Zm18.956,6.6H34.844V21.315H52.961V26.6Zm1.591-13.279H51.4V15.2h2.944v1.508H51.4V20h-1.86V11.8h5.011Z"/></g></svg>